<svg width="24" height="18" viewBox="0 0 24 18" fill="none" xmlns="http://www.w3.org/2000/svg">
<path d="M8.69149 11.818C9.00594 11.818 9.30751 11.6931 9.52986 11.4708C9.7522 11.2484 9.87712 10.9469 9.87712 10.6324C9.87712 10.318 9.7522 10.0164 9.52986 9.79404C9.30751 9.57169 9.00594 9.44678 8.69149 9.44678C8.37704 9.44678 8.07547 9.57169 7.85312 9.79404C7.63077 10.0164 7.50586 10.318 7.50586 10.6324C7.50586 10.9469 7.63077 11.2484 7.85312 11.4708C8.07547 11.6931 8.37704 11.818 8.69149 11.818ZM15.0148 11.818C15.3293 11.818 15.6309 11.6931 15.8532 11.4708C16.0756 11.2484 16.2005 10.9469 16.2005 10.6324C16.2005 10.318 16.0756 10.0164 15.8532 9.79404C15.6309 9.57169 15.3293 9.44678 15.0148 9.44678C14.7004 9.44678 14.3988 9.57169 14.1765 9.79404C13.9541 10.0164 13.8292 10.318 13.8292 10.6324C13.8292 10.9469 13.9541 11.2484 14.1765 11.4708C14.3988 11.6931 14.7004 11.818 15.0148 11.818V11.818Z" fill="#666666"/>
<path d="M16.9116 5.06334C15.2765 4.55164 13.5718 4.29725 11.8585 4.30928H11.8474C10.1339 4.29721 8.42887 4.55161 6.79348 5.06334C6.69402 5.09605 6.58905 5.10867 6.48467 5.10048C6.38029 5.09229 6.27858 5.06344 6.18544 5.01561C6.0923 4.96778 6.0096 4.90192 5.94212 4.82186C5.87465 4.7418 5.82375 4.64913 5.79239 4.54924C5.76103 4.44934 5.74983 4.34421 5.75944 4.23995C5.76905 4.1357 5.79927 4.03438 5.84836 3.9419C5.89745 3.84942 5.96442 3.76762 6.04539 3.70123C6.12636 3.63485 6.21971 3.58522 6.32002 3.55522C8.11038 2.99475 9.97695 2.71583 11.853 2.72844C13.7284 2.71599 15.5945 2.9949 17.3843 3.55522C17.486 3.58394 17.5809 3.63275 17.6634 3.69877C17.7459 3.7648 17.8143 3.84669 17.8646 3.93961C17.9149 4.03253 17.946 4.13459 17.9562 4.23976C17.9664 4.34493 17.9554 4.45107 17.9238 4.55191C17.8923 4.65275 17.8408 4.74624 17.7725 4.82685C17.7042 4.90746 17.6204 4.97356 17.5261 5.02124C17.4319 5.06892 17.329 5.09721 17.2236 5.10444C17.1181 5.11167 17.0124 5.09769 16.9124 5.06334H16.9116ZM5.80308 13.558C5.8658 13.358 6.00537 13.1912 6.19109 13.0941C6.37681 12.997 6.59349 12.9776 6.79348 13.0403C8.42886 13.5517 10.1338 13.807 11.8474 13.7943H11.8585C13.572 13.8064 15.2771 13.552 16.9124 13.0403C17.1105 12.9843 17.3226 13.0078 17.5035 13.1058C17.6845 13.2038 17.8202 13.3685 17.8816 13.5649C17.9431 13.7613 17.9255 13.9739 17.8326 14.1576C17.7398 14.3413 17.5789 14.4814 17.3843 14.5484C15.5945 15.1087 13.7284 15.3876 11.853 15.3752C9.97695 15.3878 8.11038 15.1088 6.32002 14.5484C6.12006 14.4857 5.95319 14.3461 5.85611 14.1604C5.75902 13.9746 5.73966 13.758 5.80229 13.558H5.80308Z" fill="#666666"/>
<path d="M16.3058 0.0363652C17.3523 0.261635 18.3767 0.578593 19.3687 0.984869H19.3702C19.5878 1.07452 19.7827 1.21157 19.9406 1.38605C20.0985 1.56052 20.2156 1.76802 20.2832 1.99344L23.6409 13.1858C23.7272 13.4784 23.7273 13.7897 23.6412 14.0824C23.5551 14.3751 23.3865 14.6368 23.1556 14.8362C21.521 16.2566 19.311 17.3394 16.7895 17.956H16.7856C16.4386 18.0391 16.0736 18.0021 15.7503 17.8511C15.427 17.7001 15.1645 17.4439 15.0055 17.1245V17.1229L13.8183 14.7492C13.7266 14.562 13.7125 14.346 13.7793 14.1484C13.8461 13.9508 13.9882 13.7876 14.1748 13.6944C14.3614 13.6012 14.5772 13.5854 14.7753 13.6507C14.9734 13.7159 15.1377 13.8568 15.2324 14.0426L16.4204 16.4186C18.7442 15.8495 20.7108 14.8662 22.1193 13.6419L22.1233 13.6395L22.1248 13.6371V13.634L18.7687 2.44794L18.7679 2.44636C17.8631 2.07652 16.9272 1.78741 15.9714 1.58243L15.9691 1.58164C15.9689 1.5815 15.9686 1.58141 15.9684 1.58138C15.9682 1.58135 15.9679 1.58137 15.9677 1.58145C15.9675 1.58153 15.9672 1.58165 15.9671 1.58182C15.9669 1.58199 15.9668 1.5822 15.9667 1.58243L15.1794 3.94499C15.1466 4.0435 15.0947 4.13458 15.0267 4.21303C14.9587 4.29149 14.876 4.35578 14.7831 4.40224C14.6903 4.4487 14.5892 4.47642 14.4856 4.48381C14.3821 4.4912 14.2781 4.47813 14.1796 4.44533C14.081 4.41253 13.99 4.36065 13.9115 4.29264C13.8331 4.22464 13.7688 4.14186 13.7223 4.04901C13.6758 3.95616 13.6481 3.85507 13.6407 3.75151C13.6333 3.64795 13.6464 3.54395 13.6792 3.44545L14.4673 1.08051C14.5912 0.710533 14.8474 0.399378 15.1867 0.206804C15.5261 0.0142287 15.9246 -0.0461886 16.3058 0.0371554V0.0363652ZM7.73842 1.58085H7.73447C6.77885 1.78635 5.84299 2.07644 4.93875 2.44636L4.93796 2.44715V2.44794L1.58105 13.634V13.6371C1.58105 13.6371 1.58105 13.6387 1.58263 13.6395L1.58579 13.6419C2.99432 14.867 4.96167 15.8495 7.28472 16.4186L8.47351 14.0426C8.51941 13.9489 8.5834 13.8653 8.6618 13.7964C8.74019 13.7276 8.83143 13.675 8.93025 13.6416C9.02908 13.6082 9.13354 13.5947 9.23761 13.6019C9.34168 13.609 9.44331 13.6367 9.53662 13.6834C9.62994 13.73 9.7131 13.7946 9.78131 13.8736C9.84953 13.9525 9.90144 14.0441 9.93407 14.1432C9.96669 14.2423 9.97938 14.3469 9.9714 14.4509C9.96342 14.5549 9.93493 14.6563 9.88757 14.7492L8.70036 17.1237C8.54167 17.4434 8.27923 17.6999 7.95592 17.8512C7.6326 18.0026 7.26753 18.0398 6.92033 17.9568L6.91638 17.956C4.39494 17.3394 2.18414 16.2566 0.550343 14.8362C0.319219 14.637 0.150491 14.3753 0.0644061 14.0825C-0.0216788 13.7898 -0.0214639 13.4784 0.0650249 13.1858V13.1826L3.42431 1.99344C3.49192 1.76815 3.60887 1.56075 3.76664 1.38629C3.92442 1.21184 4.11907 1.07471 4.33645 0.984869H4.33803C5.32904 0.579042 6.35399 0.261638 7.40091 0.0363652C7.78196 -0.0467632 8.1803 0.0137592 8.51946 0.206318C8.85863 0.398877 9.11474 0.709907 9.23864 1.07972V1.0813L10.0267 3.44466C10.0876 3.64206 10.0688 3.85548 9.97438 4.03921C9.87992 4.22295 9.71727 4.3624 9.52127 4.4277C9.32526 4.493 9.11148 4.47896 8.92569 4.38859C8.73991 4.29823 8.59689 4.13871 8.52726 3.9442L7.74 1.58164H7.73842V1.58085Z" fill="#666666"/>
<path d="M8.69149 11.818C9.00594 11.818 9.30751 11.6931 9.52986 11.4708C9.7522 11.2484 9.87712 10.9469 9.87712 10.6324C9.87712 10.318 9.7522 10.0164 9.52986 9.79404C9.30751 9.57169 9.00594 9.44678 8.69149 9.44678C8.37704 9.44678 8.07547 9.57169 7.85312 9.79404C7.63077 10.0164 7.50586 10.318 7.50586 10.6324C7.50586 10.9469 7.63077 11.2484 7.85312 11.4708C8.07547 11.6931 8.37704 11.818 8.69149 11.818ZM15.0148 11.818C15.3293 11.818 15.6309 11.6931 15.8532 11.4708C16.0756 11.2484 16.2005 10.9469 16.2005 10.6324C16.2005 10.318 16.0756 10.0164 15.8532 9.79404C15.6309 9.57169 15.3293 9.44678 15.0148 9.44678C14.7004 9.44678 14.3988 9.57169 14.1765 9.79404C13.9541 10.0164 13.8292 10.318 13.8292 10.6324C13.8292 10.9469 13.9541 11.2484 14.1765 11.4708C14.3988 11.6931 14.7004 11.818 15.0148 11.818V11.818Z" fill="#666666"/>
<path d="M16.9116 5.06334C15.2765 4.55164 13.5718 4.29725 11.8585 4.30928H11.8474C10.1339 4.29721 8.42887 4.55161 6.79348 5.06334C6.69402 5.09605 6.58905 5.10867 6.48467 5.10048C6.38029 5.09229 6.27858 5.06344 6.18544 5.01561C6.0923 4.96778 6.0096 4.90192 5.94212 4.82186C5.87465 4.7418 5.82375 4.64913 5.79239 4.54924C5.76103 4.44934 5.74983 4.34421 5.75944 4.23995C5.76905 4.1357 5.79927 4.03438 5.84836 3.9419C5.89745 3.84942 5.96442 3.76762 6.04539 3.70123C6.12636 3.63485 6.21971 3.58522 6.32002 3.55522C8.11038 2.99475 9.97695 2.71583 11.853 2.72844C13.7284 2.71599 15.5945 2.9949 17.3843 3.55522C17.486 3.58394 17.5809 3.63275 17.6634 3.69877C17.7459 3.7648 17.8143 3.84669 17.8646 3.93961C17.9149 4.03253 17.946 4.13459 17.9562 4.23976C17.9664 4.34493 17.9554 4.45107 17.9238 4.55191C17.8923 4.65275 17.8408 4.74624 17.7725 4.82685C17.7042 4.90746 17.6204 4.97356 17.5261 5.02124C17.4319 5.06892 17.329 5.09721 17.2236 5.10444C17.1181 5.11167 17.0124 5.09769 16.9124 5.06334H16.9116ZM5.80308 13.558C5.8658 13.358 6.00537 13.1912 6.19109 13.0941C6.37681 12.997 6.59349 12.9776 6.79348 13.0403C8.42886 13.5517 10.1338 13.807 11.8474 13.7943H11.8585C13.572 13.8064 15.2771 13.552 16.9124 13.0403C17.1105 12.9843 17.3226 13.0078 17.5035 13.1058C17.6845 13.2038 17.8202 13.3685 17.8816 13.5649C17.9431 13.7613 17.9255 13.9739 17.8326 14.1576C17.7398 14.3413 17.5789 14.4814 17.3843 14.5484C15.5945 15.1087 13.7284 15.3876 11.853 15.3752C9.97695 15.3878 8.11038 15.1088 6.32002 14.5484C6.12006 14.4857 5.95319 14.3461 5.85611 14.1604C5.75902 13.9746 5.73966 13.758 5.80229 13.558H5.80308Z" fill="#666666"/>
<path d="M16.3058 0.0363652C17.3523 0.261635 18.3767 0.578593 19.3687 0.984869H19.3702C19.5878 1.07452 19.7827 1.21157 19.9406 1.38605C20.0985 1.56052 20.2156 1.76802 20.2832 1.99344L23.6409 13.1858C23.7272 13.4784 23.7273 13.7897 23.6412 14.0824C23.5551 14.3751 23.3865 14.6368 23.1556 14.8362C21.521 16.2566 19.311 17.3394 16.7895 17.956H16.7856C16.4386 18.0391 16.0736 18.0021 15.7503 17.8511C15.427 17.7001 15.1645 17.4439 15.0055 17.1245V17.1229L13.8183 14.7492C13.7266 14.562 13.7125 14.346 13.7793 14.1484C13.8461 13.9508 13.9882 13.7876 14.1748 13.6944C14.3614 13.6012 14.5772 13.5854 14.7753 13.6507C14.9734 13.7159 15.1377 13.8568 15.2324 14.0426L16.4204 16.4186C18.7442 15.8495 20.7108 14.8662 22.1193 13.6419L22.1233 13.6395L22.1248 13.6371V13.634L18.7687 2.44794L18.7679 2.44636C17.8631 2.07652 16.9272 1.78741 15.9714 1.58243L15.9691 1.58164C15.9689 1.5815 15.9686 1.58141 15.9684 1.58138C15.9682 1.58135 15.9679 1.58137 15.9677 1.58145C15.9675 1.58153 15.9672 1.58165 15.9671 1.58182C15.9669 1.58199 15.9668 1.5822 15.9667 1.58243L15.1794 3.94499C15.1466 4.0435 15.0947 4.13458 15.0267 4.21303C14.9587 4.29149 14.876 4.35578 14.7831 4.40224C14.6903 4.4487 14.5892 4.47642 14.4856 4.48381C14.3821 4.4912 14.2781 4.47813 14.1796 4.44533C14.081 4.41253 13.99 4.36065 13.9115 4.29264C13.8331 4.22464 13.7688 4.14186 13.7223 4.04901C13.6758 3.95616 13.6481 3.85507 13.6407 3.75151C13.6333 3.64795 13.6464 3.54395 13.6792 3.44545L14.4673 1.08051C14.5912 0.710533 14.8474 0.399378 15.1867 0.206804C15.5261 0.0142287 15.9246 -0.0461886 16.3058 0.0371554V0.0363652ZM7.73842 1.58085H7.73447C6.77885 1.78635 5.84299 2.07644 4.93875 2.44636L4.93796 2.44715V2.44794L1.58105 13.634V13.6371C1.58105 13.6371 1.58105 13.6387 1.58263 13.6395L1.58579 13.6419C2.99432 14.867 4.96167 15.8495 7.28472 16.4186L8.47351 14.0426C8.51941 13.9489 8.5834 13.8653 8.6618 13.7964C8.74019 13.7276 8.83143 13.675 8.93025 13.6416C9.02908 13.6082 9.13354 13.5947 9.23761 13.6019C9.34168 13.609 9.44331 13.6367 9.53662 13.6834C9.62994 13.73 9.7131 13.7946 9.78131 13.8736C9.84953 13.9525 9.90144 14.0441 9.93407 14.1432C9.96669 14.2423 9.97938 14.3469 9.9714 14.4509C9.96342 14.5549 9.93493 14.6563 9.88757 14.7492L8.70036 17.1237C8.54167 17.4434 8.27923 17.6999 7.95592 17.8512C7.6326 18.0026 7.26753 18.0398 6.92033 17.9568L6.91638 17.956C4.39494 17.3394 2.18414 16.2566 0.550343 14.8362C0.319219 14.637 0.150491 14.3753 0.0644061 14.0825C-0.0216788 13.7898 -0.0214639 13.4784 0.0650249 13.1858V13.1826L3.42431 1.99344C3.49192 1.76815 3.60887 1.56075 3.76664 1.38629C3.92442 1.21184 4.11907 1.07471 4.33645 0.984869H4.33803C5.32904 0.579042 6.35399 0.261638 7.40091 0.0363652C7.78196 -0.0467632 8.1803 0.0137592 8.51946 0.206318C8.85863 0.398877 9.11474 0.709907 9.23864 1.07972V1.0813L10.0267 3.44466C10.0876 3.64206 10.0688 3.85548 9.97438 4.03921C9.87992 4.22295 9.71727 4.3624 9.52127 4.4277C9.32526 4.493 9.11148 4.47896 8.92569 4.38859C8.73991 4.29823 8.59689 4.13871 8.52726 3.9442L7.74 1.58164H7.73842V1.58085Z" fill="#666666"/>
</svg>
