<svg width="23" height="20" viewBox="0 0 23 20" fill="none" xmlns="http://www.w3.org/2000/svg">
<path d="M20.6175 0.00204778C20.3425 0.0220537 20.0726 0.0865647 19.8183 0.193064H19.8149C19.5707 0.289857 18.4101 0.778105 16.6455 1.51819L10.3223 4.18128C5.785 6.09145 1.32481 7.97249 1.32481 7.97249L1.37791 7.95193C1.37791 7.95193 1.0704 8.05301 0.749187 8.27314C0.550743 8.39942 0.379981 8.56465 0.247234 8.75882C0.0896239 8.9901 -0.0371493 9.34387 0.00996235 9.70962C0.0870542 10.3281 0.487932 10.699 0.775741 10.9037C1.06698 11.111 1.34451 11.2078 1.34451 11.2078H1.35136L5.53402 12.6168C5.72161 13.219 6.8086 16.7927 7.06986 17.6158C7.22404 18.1075 7.37395 18.415 7.56154 18.6497C7.65233 18.7696 7.75855 18.8698 7.88618 18.9504C7.95253 18.989 8.02327 19.0194 8.0969 19.0412L8.05407 19.0309C8.06691 19.0343 8.07719 19.0446 8.08662 19.048C8.12088 19.0574 8.14401 19.0609 8.18769 19.0677C8.84982 19.2682 9.38176 18.857 9.38176 18.857L9.41174 18.833L11.8812 16.5845L16.0202 19.7598L16.1144 19.8001C16.977 20.1787 17.8507 19.968 18.3124 19.5962C18.7775 19.2219 18.9583 18.7431 18.9583 18.7431L18.9883 18.666L22.1867 2.28054C22.2775 1.87624 22.3006 1.49763 22.2004 1.13016C22.097 0.758255 21.8585 0.438394 21.5314 0.233323C21.2568 0.0663893 20.9384 -0.0141856 20.6175 0.00204778ZM20.531 1.75803C20.5275 1.81199 20.5378 1.806 20.5138 1.90964V1.91906L17.3453 18.134C17.3316 18.1572 17.3085 18.2077 17.2451 18.2583C17.1783 18.3114 17.1252 18.3448 16.8468 18.2343L11.7845 14.3531L8.72648 17.1404L9.36891 13.0374L17.64 5.32824C17.9809 5.0113 17.867 4.94449 17.867 4.94449C17.891 4.5556 17.3522 4.83057 17.3522 4.83057L6.92253 11.2917L6.9191 11.2746L1.92013 9.59142V9.58799L1.90728 9.58542C1.91604 9.58251 1.92462 9.57908 1.93298 9.57514L1.96039 9.56143L1.98694 9.55201C1.98694 9.55201 6.45056 7.67097 10.9878 5.76081C13.2595 4.80401 15.5482 3.84036 17.3085 3.09686C19.0688 2.35763 20.3699 1.81542 20.4436 1.7863C20.5138 1.75888 20.4804 1.75888 20.531 1.75888V1.75803Z" fill="#666666"/>
</svg>
