<svg width="17" height="22" viewBox="0 0 17 22" fill="none" xmlns="http://www.w3.org/2000/svg">
<path d="M1.44027 5.70461L1.81638 6.35349L1.81641 6.35347L1.44027 5.70461ZM9.35147 1.11848L9.72761 1.76733L9.72762 1.76733L9.35147 1.11848ZM1 10.7342H0.25V12.0424L1.37892 11.3815L1 10.7342ZM9.34222 5.85031L8.96605 5.20145L8.9633 5.20307L9.34222 5.85031ZM10.2415 5.85031L10.6176 5.20145L10.6176 5.20145L10.2415 5.85031ZM12.6457 7.24403L12.2695 7.89289L12.2696 7.8929L12.6457 7.24403ZM13.7102 7.10193L14.2429 7.62984L13.7102 7.10193ZM15.3994 5.3972L14.8667 4.86929L14.8667 4.86929L15.3994 5.3972ZM15.2154 4.00725L14.8393 4.65611L14.8393 4.65611L15.2154 4.00725ZM10.2322 1.11848L9.85604 1.76733L9.85604 1.76733L10.2322 1.11848ZM15.2336 17.9822L15.6097 18.631L15.6098 18.631L15.2336 17.9822ZM10.2321 20.8815L9.85594 20.2327L9.85593 20.2327L10.2321 20.8815ZM15.4161 16.5906L14.8846 17.1199L15.4161 16.5906ZM13.7214 14.8891L14.2528 14.3598V14.3598L13.7214 14.8891ZM12.6584 14.7485L12.2823 14.0997L12.2823 14.0997L12.6584 14.7485ZM10.2321 16.1551L9.85594 15.5062L9.85593 15.5062L10.2321 16.1551ZM9.35154 16.1551L9.7277 15.5062L9.72768 15.5062L9.35154 16.1551ZM5.5169 13.9322L5.14074 14.581L5.14075 14.581L5.5169 13.9322ZM5.07663 9.2897H5.82663V7.98545L4.69938 8.64148L5.07663 9.2897ZM1 11.6622L0.622753 11.014L0.25 11.2309V11.6622H1ZM1.44025 16.2954L1.81639 15.6465L1.81636 15.6465L1.44025 16.2954ZM9.35154 20.8816L8.9754 21.5304L8.97543 21.5304L9.35154 20.8816ZM1.81641 6.35347L9.72761 1.76733L8.97532 0.46962L1.06413 5.05575L1.81641 6.35347ZM1.75 6.47028C1.75 6.42086 1.77627 6.37674 1.81638 6.35349L1.06416 5.05574C0.559383 5.34832 0.25 5.88798 0.25 6.47028H1.75ZM1.75 10.7342V6.47028H0.25V10.7342H1.75ZM8.9633 5.20307L0.621077 10.087L1.37892 11.3815L9.72114 6.49754L8.9633 5.20307ZM10.6176 5.20145C10.1067 4.90531 9.47692 4.90529 8.96606 5.20146L9.71839 6.49915C9.76394 6.47274 9.8197 6.47272 9.86531 6.49917L10.6176 5.20145ZM13.0218 6.59517L10.6176 5.20145L9.86531 6.49916L12.2695 7.89289L13.0218 6.59517ZM13.1774 6.57403C13.1356 6.61627 13.072 6.62428 13.0218 6.59517L12.2696 7.8929C12.911 8.26474 13.7214 8.15614 14.2429 7.62984L13.1774 6.57403ZM14.8667 4.86929L13.1774 6.57403L14.2429 7.62984L15.9322 5.92511L14.8667 4.86929ZM14.8393 4.65611C14.9142 4.69955 14.9296 4.80575 14.8667 4.86929L15.9321 5.92512C16.685 5.16535 16.5183 3.89561 15.5915 3.35839L14.8393 4.65611ZM9.85604 1.76733L14.8393 4.65611L15.5915 3.35839L10.6083 0.469619L9.85604 1.76733ZM9.72762 1.76733C9.76748 1.74422 9.81617 1.74422 9.85604 1.76733L10.6083 0.469623C10.1032 0.176793 9.48045 0.176792 8.97532 0.469623L9.72762 1.76733ZM14.8575 17.3333L9.85594 20.2327L10.6082 21.5304L15.6097 18.631L14.8575 17.3333ZM14.8846 17.1199C14.9478 17.1833 14.9326 17.2898 14.8574 17.3333L15.6098 18.631C16.5379 18.0929 16.7035 16.8205 15.9475 16.0614L14.8846 17.1199ZM13.19 15.4183L14.8846 17.1199L15.9475 16.0614L14.2528 14.3598L13.19 15.4183ZM13.0346 15.3974C13.0847 15.3683 13.1481 15.3763 13.19 15.4183L14.2528 14.3598C13.731 13.8359 12.9225 13.7286 12.2823 14.0997L13.0346 15.3974ZM10.6082 16.804L13.0346 15.3974L12.2823 14.0997L9.85594 15.5062L10.6082 16.804ZM8.97538 16.8039C9.48047 17.0968 10.1032 17.0968 10.6082 16.8039L9.85593 15.5062C9.81612 15.5293 9.76751 15.5293 9.7277 15.5062L8.97538 16.8039ZM5.14075 14.581L8.9754 16.804L9.72768 15.5062L5.89304 13.2833L5.14075 14.581ZM4.32663 13.1665C4.32663 13.7488 4.63603 14.2884 5.14074 14.581L5.89305 13.2833C5.85287 13.26 5.82663 13.2159 5.82663 13.1665H4.32663ZM4.32663 9.2897V13.1665H5.82663V9.2897H4.32663ZM1.37725 12.3104L5.45387 9.93792L4.69938 8.64148L0.622753 11.014L1.37725 12.3104ZM1.75 15.5297V11.6622H0.25V15.5297H1.75ZM1.81636 15.6465C1.77628 15.6233 1.75 15.5792 1.75 15.5297H0.25C0.25 16.112 0.559322 16.6516 1.06413 16.9443L1.81636 15.6465ZM9.72768 20.2327L1.81639 15.6465L1.0641 16.9442L8.9754 21.5304L9.72768 20.2327ZM9.85593 20.2327C9.81612 20.2558 9.76748 20.2558 9.72765 20.2327L8.97543 21.5304C9.48049 21.8232 10.1032 21.8232 10.6082 21.5304L9.85593 20.2327Z" fill="#666666"/>
</svg>
