<svg width="34" height="32" viewBox="0 0 34 32" fill="none" xmlns="http://www.w3.org/2000/svg">
<g clip-path="url(#clip0_692_224)">
<path d="M27.8402 27.02H26.7202V28.06H27.8402V27.02Z" fill="#F2A800"/>
<path d="M28.9398 23.8999H27.8198V24.9399H28.9398V23.8999Z" fill="#F2A800"/>
<path d="M6.68006 13.52H5.56006V14.56H6.68006V13.52Z" fill="#FAF3CE"/>
<path d="M32.2799 10.3999H31.1599H30.0599H28.9399V11.4399V12.4799V13.5199V14.5599V15.5799V16.6199V17.6599V18.6999V19.7399V20.7799V21.8199H27.8199V22.8599V23.8999H28.9399V24.9399H27.8199V23.8999H26.7199V24.9399H25.5999V25.9799H24.4799V27.0199V28.0599H23.3799H22.2599V29.0999H21.1399V30.1399H20.0399H18.9199V31.1799H20.0399H21.1399H22.2599H23.3799V30.1399H24.4799H25.5999V29.0999H26.7199V28.0599V27.0199H27.8199V28.0599H28.9399V27.0199V25.9799H30.0599V24.9399H31.1599V23.8999V22.8599H32.2799V21.8199V20.7799H33.3999V19.7399V18.6999V17.6599V16.6199V15.5799V14.5599V13.5199V12.4799V11.4399V10.3999H32.2799Z" fill="#F2A800"/>
<path d="M21.1399 30.1201V30.1401H18.9199V31.1801H23.3799V30.1401H25.5999V30.1201H21.1399Z" fill="#231815"/>
<path d="M27.8402 7.27979H26.7202V8.31978H27.8402V7.27979Z" fill="white"/>
<path d="M26.7201 10.4V9.36004V8.32004V7.28004H25.6001V6.24004H24.4801V5.20004H23.3601V4.16004H22.2401V3.12004H21.1201V2.08004H20.0001H18.8801V1.04004H17.8001H16.6801H15.5601H14.4401H13.3201H12.2001H11.0801H9.96012V2.08004H8.84012H7.80012V3.12004H6.68012V4.16004H5.56012V5.20004H4.44012V6.24004H3.32012V7.28004V8.32004H2.20012V9.36004V10.4H1.12012V11.44V12.48V13.52V14.56V15.6V16.64V17.68V18.72V19.76V20.8H2.24012V21.84V22.88H3.36012V23.92V24.96H4.48012V26H5.60012V27.04H6.72012V28.08H7.80012V29.12H8.92012H10.0401V30.16H11.1601H12.2801H13.4001H14.5201H15.6401H16.7601H17.8001H18.9201V29.12H20.0401H21.1601V28.08H22.2801V27.04H23.4001V26H24.5201V24.96H25.6401V23.92H26.7601V22.88V21.84H27.8801V20.8V19.76V18.72V17.68V16.64V15.6V14.56V13.52V12.48V11.44V10.4H26.7201ZM5.56012 11.44V10.4V9.36004H6.68012V8.32004H7.80012V7.28004H8.92012V6.24004H10.0401V5.20004H11.1601H12.2801H13.4001H14.5201H15.6401H16.7601H17.8001H18.9201V6.24004H20.0401V7.28004H21.1601V8.32004H22.2801V9.36004H23.4001V10.4V11.44H24.5201V12.48V13.52V14.56V15.6V16.64V17.68V18.72V19.76H23.4001V20.8V21.84H22.2801V22.88H21.1601V23.92H20.0401V24.96H18.9201V26H17.8001H16.6801H15.5601H14.4401H13.3201H12.2001H11.0801H9.96012V24.96H8.84012V23.92H7.80012V22.88H6.68012V21.84H5.56012V20.8V19.76H4.44012V18.72V17.68V16.64V15.6V14.56V13.52V12.48V11.44H5.56012Z" fill="#FCD100"/>
<path d="M7.80018 10.4002H6.68018V11.4402V12.4802V13.5202V14.5602V15.5802V16.6202V17.6602V18.7002H7.80018V19.7402V20.7802H8.90018V21.8202H10.0202V22.8602H11.1202H12.2402V23.9002H13.3602H14.4602H15.5802H16.7002H17.8002V22.8602H18.9202H20.0402V21.8202H21.1402V20.7802H22.2602V19.7402V18.7002H23.3802V17.6602V16.6202V15.5802V14.5602V13.5202V12.4802H22.2602V11.4402V10.4002V9.36023H21.1402V8.32023H20.0402V7.28023H18.9202H17.8002V6.24023H16.7002H15.5802H14.4602H13.3602H12.2402H11.1202V7.28023H10.0202H8.90018V8.32023H7.80018V9.36023V10.4002Z" fill="#FCD100"/>
<path d="M31.1598 7.2802V6.2402V5.2002H30.0598V6.2402H28.9398H27.8198V7.2802V8.32019V9.36019H28.9398V8.32019H30.0598H31.1598V9.36019V10.4002H32.2798V9.36019V8.32019V7.2802H31.1598Z" fill="#F2A800"/>
<path d="M28.9399 4.16V3.12H27.8199H26.7199V2.08H25.5999V1.04H24.4799H23.3799V0H22.2599H21.1399H20.0399H18.9199V1.04H20.0399H21.1399V2.08H22.2599V3.12H23.3799V4.16H24.4799V5.2H25.5999H26.7199H27.8199H28.9399H30.0599V4.16H28.9399Z" fill="#F2A800"/>
<path d="M31.1598 7.2802V6.2402V5.2002H30.0598V6.2402H28.9398H27.8198V7.2802V8.32019V9.36019H28.9398V8.32019H30.0598H31.1598V9.36019V10.4002H32.2798V9.36019V8.32019V7.2802H31.1598Z" fill="#F2A800"/>
<path d="M31.1605 7.27971V6.23971V5.19971H30.0605V6.23971V7.27971H31.1605V8.31971V9.35971V10.3997H32.2805V9.35971V8.31971V7.27971H31.1605Z" fill="#231815"/>
<path d="M26.7201 2.08008H25.6001V3.12008H26.7201V2.08008Z" fill="#231815"/>
<path d="M26.7202 4.16012H27.8202H28.9402V3.12012H27.8202H26.7202V4.16012Z" fill="#231815"/>
<path d="M24.4799 2.08004H25.5999V1.04004H24.4799H23.3799V2.08004H24.4799Z" fill="#231815"/>
<path d="M30.0599 4.16016H28.9399V5.20016H30.0599V4.16016Z" fill="#231815"/>
<path d="M20.0399 1.04H21.1399H22.2599H23.3799V0H22.2599H21.1399H20.0399H18.9199V1.04H20.0399Z" fill="#231815"/>
<path d="M27.8202 23.8999H26.7202V24.9399H27.8202V23.8999Z" fill="#231815"/>
<path d="M32.2802 10.3999H31.1602H32.2802V11.4399V12.4799V13.5199V14.5599V15.5799V16.6199V17.6599V18.6999V19.7399V20.7799H33.4002V19.7399V18.6999V17.6599V16.6199V15.5799V14.5599V13.5199V12.4799V11.4399V10.3999H32.2802Z" fill="#231815"/>
<path d="M27.8198 25.98V27.02V28.06H28.9398V27.02V25.98H27.8198Z" fill="#231815"/>
<path d="M30.0599 24.9399H28.9399V25.9799H30.0599V24.9399Z" fill="#231815"/>
<path d="M31.1601 20.7798V21.8198V22.8598H30.0601V23.8998V24.9398H31.1601V23.8998V22.8598H32.2801V21.8198V20.7798H31.1601Z" fill="#231815"/>
<path d="M23.3798 30.1401H22.2598V31.1801H23.3798V30.1401Z" fill="#231815"/>
<path d="M26.7201 28.06V27.02H25.6001V28.06V29.1H26.7201V28.06Z" fill="#231815"/>
<path d="M25.6 29.1001H24.48V30.1401H25.6V29.1001Z" fill="#231815"/>
<path d="M18.92 29.1001V30.1401H17.8H16.7H15.58H14.46H13.36H12.24H11.12H10.02V31.1801H11.12H12.24H13.36H14.46H15.58H16.7H17.8H18.92V30.1401H20.04H21.14V29.1001H20.04H18.92Z" fill="#231815"/>
<path d="M22.2601 28.0601H21.1401V29.1001H22.2601V28.0601Z" fill="#231815"/>
<path d="M23.3798 27.02H22.2598V28.06H23.3798H24.4798V27.02V25.98H23.3798V27.02Z" fill="#231815"/>
<path d="M25.6 24.9399H24.48V25.9799H25.6V24.9399Z" fill="#231815"/>
<path d="M26.7201 23.8999H25.6001V24.9399H26.7201V23.8999Z" fill="#231815"/>
<path d="M26.7202 22.8598V23.8998H27.8202V22.8598V21.8198H26.7202V22.8598Z" fill="#231815"/>
<path d="M27.8198 11.4399V12.4799V13.5199V14.5599V15.5799V16.6199V17.6599V18.6999V19.7399V20.7799V21.8199H28.9398V20.7799V19.7399V18.6999V17.6599V16.6199V15.5799V14.5599V13.5199V12.4799V11.4399H27.8198Z" fill="#231815"/>
<path d="M26.7202 9.35982V10.3998H27.8202V9.35982V8.31982H26.7202V9.35982Z" fill="#231815"/>
<path d="M26.7201 6.24023H25.6001V7.28023H26.7201V6.24023Z" fill="#231815"/>
<path d="M21.16 22.8599H20.04V23.8999H21.16V22.8599Z" fill="#231815"/>
<path d="M22.2601 11.4399V12.4799H23.3801V13.5199V14.5599V15.5799V16.6199V17.6599V18.6999H22.2601V19.7399V20.7799H21.1401V21.8199V22.8599H22.2601V21.8199H23.3801V20.7799V19.7399H24.4801V18.6999V17.6599V16.6199V15.5799V14.5599V13.5199V12.4799V11.4399H23.3801V10.3999V9.35986H22.2601V10.3999V11.4399Z" fill="#231815"/>
<path d="M22.2601 8.31982H21.1401V9.35982H22.2601V8.31982Z" fill="#231815"/>
<path d="M21.16 7.27979H20.04V8.31978H21.16V7.27979Z" fill="#231815"/>
<path d="M25.6 5.2002H24.48V6.2402H25.6V5.2002Z" fill="#231815"/>
<path d="M24.4999 4.16016H23.3799V5.20016H24.4999V4.16016Z" fill="#231815"/>
<path d="M23.3798 3.12012H22.2598V4.16012H23.3798V3.12012Z" fill="#231815"/>
<path d="M22.2601 2.08008H21.1401V3.12008H22.2601V2.08008Z" fill="#231815"/>
<path d="M18.9199 2.08004H20.0399H21.1399V1.04004H20.0399H18.9199V2.08004Z" fill="#231815"/>
<path d="M8.8998 29.1001H7.7998V30.1401H8.8998H10.0198V29.1001H8.8998Z" fill="#231815"/>
<path d="M7.80018 28.0601H6.68018V29.1001H7.80018V28.0601Z" fill="#231815"/>
<path d="M5.55996 27.02V25.98H4.45996V27.02V28.06H5.55996H6.67996V27.02H5.55996Z" fill="#231815"/>
<path d="M4.45984 24.9399H3.33984V25.9799H4.45984V24.9399Z" fill="#231815"/>
<path d="M11.1199 25.9799H12.2399H13.3599H14.4599H15.5799H16.6999H17.7999H18.9199V24.9399H20.0399V23.8999H18.9199H17.7999V24.9399H16.6999H15.5799H14.4599H13.3599H12.2399H11.1199V23.8999H10.0199H8.8999V24.9399H10.0199V25.9799H11.1199Z" fill="#231815"/>
<path d="M8.9198 22.8599H7.7998V23.8999H8.9198V22.8599Z" fill="#231815"/>
<path d="M3.34021 22.8599H2.22021V23.8999V24.9399H3.34021V23.8999V22.8599Z" fill="#231815"/>
<path d="M2.22012 20.7798H1.12012V21.8198V22.8598H2.22012V21.8198V20.7798Z" fill="#231815"/>
<path d="M1.12 18.6999V17.6599V16.6199V15.5799V14.5599V13.5199V12.4799V11.4399H0V12.4799V13.5199V14.5599V15.5799V16.6199V17.6599V18.6999V19.7399H1.12V18.6999Z" fill="#231815"/>
<path d="M7.79996 20.7798H6.67996V19.7398V18.6998H5.55996V17.6598V16.6198V15.5798V14.5598V13.5198V12.4798H6.67996V11.4398V10.3998H7.79996V9.35982V8.31982H6.67996V9.35982H5.55996V10.3998V11.4398H4.45996V12.4798V13.5198V14.5598V15.5798V16.6198V17.6598V18.6998V19.7398H5.55996V20.7798V21.8198H6.67996V22.8598H7.79996V21.8198V20.7798Z" fill="#231815"/>
<path d="M2.22012 9.35982V8.31982H1.12012V9.35982V10.3998H2.22012V9.35982Z" fill="#231815"/>
<path d="M8.9198 7.27979H7.7998V8.31978H8.9198V7.27979Z" fill="#231815"/>
<path d="M3.34021 7.28023V6.24023H2.22021V7.28023V8.32023H3.34021V7.28023Z" fill="#231815"/>
<path d="M11.1199 7.2802V6.2402H12.2399H13.3599H14.4599H15.5799H16.6999H17.7999V7.2802H18.9199H20.0399V6.2402H18.9199V5.2002H17.7999H16.6999H15.5799H14.4599H13.3599H12.2399H11.1199H10.0199V6.2402H8.8999V7.2802H10.0199H11.1199Z" fill="#231815"/>
<path d="M4.45984 5.2002H3.33984V6.2402H4.45984V5.2002Z" fill="#231815"/>
<path d="M5.57996 4.16016H4.45996V5.20016H5.57996V4.16016Z" fill="#231815"/>
<path d="M6.68006 3.12012H5.56006V4.16012H6.68006V3.12012Z" fill="#231815"/>
<path d="M7.80018 2.08008H6.68018V3.12008H7.80018V2.08008Z" fill="#231815"/>
<path d="M10.0198 2.08004V1.04004H8.8998H7.7998V2.08004H8.8998H10.0198Z" fill="#231815"/>
<path d="M12.24 1.04H13.36H14.46H15.58H16.7H17.8H18.92V0H17.8H16.7H15.58H14.46H13.36H12.24H11.12H10.02V1.04H11.12H12.24Z" fill="#231815"/>
<path d="M30.0598 8.31982H28.9398V9.35982H27.8198V10.3998V11.4398H28.9398V10.3998H30.0598H31.1598V9.35982V8.31982H30.0598Z" fill="white"/>
<path d="M28.9401 5.19971H27.8201H26.7201H25.6001V6.23971H26.7201V7.27971H27.8201V6.23971H28.9401H30.0601V5.19971H28.9401Z" fill="white"/>
<path d="M15.5803 23.8998H14.4603H13.3603H12.2403V22.8598H11.1203H10.0203V21.8198H8.90029V20.7798H7.80029V21.8198V22.8598H8.90029V23.8998H10.0203H11.1203V24.9398H12.2403H13.3603H14.4603H15.5803H16.7003H17.8003V23.8998H16.7003H15.5803Z" fill="white"/>
<path d="M17.8003 22.8599V23.8999H18.9203H20.0403V22.8599H18.9203H17.8003Z" fill="white"/>
<path d="M21.16 21.8198H20.04V22.8598H21.16V21.8198Z" fill="white"/>
<path d="M7.80018 18.6997H6.68018V19.7397V20.7797H7.80018V19.7397V18.6997Z" fill="white"/>
<path d="M6.68006 16.6196V15.5796V14.5596H5.56006V15.5796V16.6196V17.6596V18.6996H6.68006V17.6596V16.6196Z" fill="white"/>
<path d="M6.68006 12.4795H5.56006V13.5195H6.68006V12.4795Z" fill="white"/>
</g>
<defs>
<clipPath id="clip0_692_224">
<rect width="33.4" height="31.18" fill="white"/>
</clipPath>
</defs>
</svg>
