<svg width="21" height="18" viewBox="0 0 21 18" fill="none" xmlns="http://www.w3.org/2000/svg">
<path d="M17.3633 3.64453C17.2852 3.73568 17.2005 3.83333 17.1094 3.9375C17.0312 4.02865 16.9466 4.11979 16.8555 4.21094C16.7513 4.3151 16.6797 4.43229 16.6406 4.5625C16.6016 4.69271 16.5951 4.82943 16.6211 4.97266C16.6341 5.05078 16.6406 5.13542 16.6406 5.22656C16.6536 5.31771 16.6602 5.40885 16.6602 5.5C16.6602 6.08594 16.6276 6.65234 16.5625 7.19922C16.4974 7.73307 16.3932 8.24089 16.25 8.72266C16.1328 9.17839 15.9896 9.61458 15.8203 10.0312C15.651 10.4349 15.4557 10.819 15.2344 11.1836C14.8177 11.9128 14.3164 12.5638 13.7305 13.1367C13.1576 13.7096 12.5195 14.1914 11.8164 14.582C11.4648 14.7904 11.1003 14.9727 10.7227 15.1289C10.3451 15.2852 9.95443 15.4154 9.55078 15.5195C9.13411 15.6237 8.70443 15.7083 8.26172 15.7734C7.83203 15.8255 7.38932 15.8581 6.93359 15.8711C6.47786 15.8711 6.01562 15.8451 5.54688 15.793C5.07812 15.7279 4.60938 15.6367 4.14062 15.5195C4.66146 15.3633 5.16927 15.168 5.66406 14.9336C6.17188 14.6992 6.66016 14.4258 7.12891 14.1133C7.19401 14.0612 7.2526 14.0091 7.30469 13.957C7.35677 13.8919 7.39583 13.8268 7.42188 13.7617C7.51302 13.5534 7.51953 13.3451 7.44141 13.1367C7.36328 12.9154 7.22005 12.7526 7.01172 12.6484C6.41276 12.388 5.88542 12.1016 5.42969 11.7891C4.98698 11.4766 4.60938 11.151 4.29688 10.8125C3.9974 10.5 3.74349 10.181 3.53516 9.85547C3.32682 9.51693 3.15755 9.17188 3.02734 8.82031C2.94922 8.625 2.88411 8.42969 2.83203 8.23438C2.77995 8.02604 2.73438 7.82422 2.69531 7.62891C2.65625 7.36849 2.63021 7.11458 2.61719 6.86719C2.60417 6.61979 2.59766 6.37891 2.59766 6.14453C2.61068 5.80599 2.63672 5.48047 2.67578 5.16797C2.71484 4.85547 2.76693 4.57552 2.83203 4.32812C2.98828 4.47135 3.15104 4.61458 3.32031 4.75781C3.5026 4.90104 3.6849 5.04427 3.86719 5.1875C4.29688 5.52604 4.7526 5.82552 5.23438 6.08594C5.72917 6.33333 6.23698 6.54818 6.75781 6.73047C7.27865 6.88672 7.8125 7.01042 8.35938 7.10156C8.90625 7.17969 9.45964 7.21224 10.0195 7.19922C10.2409 7.1862 10.4297 7.10156 10.5859 6.94531C10.7552 6.77604 10.8398 6.58073 10.8398 6.35938V5.51953C10.8398 5.44141 10.8398 5.36979 10.8398 5.30469C10.8398 5.22656 10.8464 5.14844 10.8594 5.07031C10.8854 4.90104 10.9245 4.73828 10.9766 4.58203C11.0286 4.41276 11.1003 4.25 11.1914 4.09375C11.2695 3.9375 11.3607 3.79427 11.4648 3.66406C11.569 3.53385 11.6927 3.41016 11.8359 3.29297C11.9792 3.16276 12.1289 3.05208 12.2852 2.96094C12.4544 2.85677 12.6302 2.77865 12.8125 2.72656C12.9948 2.66146 13.1771 2.6224 13.3594 2.60938C13.5547 2.58333 13.7435 2.57682 13.9258 2.58984C14.1211 2.60286 14.3099 2.63542 14.4922 2.6875C14.6745 2.72656 14.8503 2.79167 15.0195 2.88281C15.1888 2.96094 15.3451 3.05859 15.4883 3.17578C15.6445 3.29297 15.7878 3.42318 15.918 3.56641C16.0221 3.68359 16.1523 3.76823 16.3086 3.82031C16.4648 3.8724 16.6211 3.8724 16.7773 3.82031C16.8815 3.79427 16.9792 3.76823 17.0703 3.74219C17.1615 3.70312 17.2591 3.67057 17.3633 3.64453ZM18.6914 1.06641C18.3789 1.28776 18.0599 1.48307 17.7344 1.65234C17.4219 1.82161 17.1029 1.96484 16.7773 2.08203C16.6211 1.9388 16.4583 1.80859 16.2891 1.69141C16.1198 1.57422 15.9505 1.47005 15.7812 1.37891C15.5078 1.2487 15.2214 1.14453 14.9219 1.06641C14.6354 0.988281 14.3424 0.936198 14.043 0.910156C13.7565 0.897135 13.4635 0.910156 13.1641 0.949219C12.8646 0.988281 12.5716 1.05339 12.2852 1.14453C12.0117 1.23568 11.7448 1.35938 11.4844 1.51562C11.224 1.65885 10.9766 1.82812 10.7422 2.02344C10.5208 2.20573 10.3255 2.40755 10.1562 2.62891C9.98698 2.83724 9.84375 3.05859 9.72656 3.29297C9.59635 3.54036 9.48568 3.79427 9.39453 4.05469C9.31641 4.3151 9.25781 4.57552 9.21875 4.83594C9.19271 4.95312 9.17318 5.07031 9.16016 5.1875C9.16016 5.29167 9.16016 5.39583 9.16016 5.5C8.83464 5.47396 8.51562 5.4349 8.20312 5.38281C7.89062 5.31771 7.58464 5.23307 7.28516 5.12891C6.84245 4.98568 6.41927 4.8099 6.01562 4.60156C5.61198 4.39323 5.23438 4.14583 4.88281 3.85938C4.55729 3.61198 4.2513 3.34505 3.96484 3.05859C3.67839 2.75911 3.41797 2.4401 3.18359 2.10156C3.05339 1.91927 2.87109 1.80859 2.63672 1.76953C2.41536 1.73047 2.20703 1.77604 2.01172 1.90625C1.94661 1.94531 1.88802 1.9974 1.83594 2.0625C1.79688 2.11458 1.76432 2.17318 1.73828 2.23828C1.72526 2.26432 1.66016 2.43359 1.54297 2.74609C1.42578 3.04557 1.3151 3.44922 1.21094 3.95703C1.13281 4.25651 1.06771 4.58854 1.01562 4.95312C0.976562 5.31771 0.950521 5.70182 0.9375 6.10547C0.924479 6.37891 0.924479 6.67188 0.9375 6.98438C0.963542 7.28385 1.0026 7.58984 1.05469 7.90234C1.09375 8.14974 1.14583 8.40365 1.21094 8.66406C1.28906 8.91146 1.38021 9.16536 1.48438 9.42578C1.64062 9.86849 1.84896 10.3047 2.10938 10.7344C2.38281 11.151 2.70833 11.5612 3.08594 11.9648C3.34635 12.2383 3.6263 12.4987 3.92578 12.7461C4.23828 12.9935 4.57031 13.2279 4.92188 13.4492C4.71354 13.5404 4.4987 13.6315 4.27734 13.7227C4.06901 13.8008 3.85417 13.8659 3.63281 13.918C3.17708 14.0482 2.71484 14.1458 2.24609 14.2109C1.79036 14.263 1.33464 14.276 0.878906 14.25C0.644531 14.237 0.442708 14.3086 0.273438 14.4648C0.104167 14.6211 0.0130208 14.8164 0 15.0508C0 15.207 0.0390625 15.3568 0.117188 15.5C0.195312 15.6302 0.299479 15.7344 0.429688 15.8125C0.950521 16.099 1.48438 16.3529 2.03125 16.5742C2.57812 16.7956 3.125 16.9779 3.67188 17.1211C4.21875 17.2513 4.76562 17.3555 5.3125 17.4336C5.85938 17.4987 6.40625 17.5312 6.95312 17.5312C7.46094 17.5312 7.96875 17.4987 8.47656 17.4336C8.98438 17.3555 9.48568 17.2513 9.98047 17.1211C10.4492 17.0039 10.9049 16.8542 11.3477 16.6719C11.8034 16.4766 12.2396 16.2617 12.6562 16.0273C13.4635 15.5586 14.2122 14.9922 14.9023 14.3281C15.5924 13.651 16.1849 12.8828 16.6797 12.0234C16.9271 11.5938 17.1484 11.138 17.3438 10.6562C17.5521 10.1745 17.7279 9.67318 17.8711 9.15234C18.0143 8.59245 18.125 8.00651 18.2031 7.39453C18.2943 6.78255 18.3398 6.15104 18.3398 5.5C18.3398 5.4349 18.3333 5.36979 18.3203 5.30469C18.3203 5.22656 18.3203 5.15495 18.3203 5.08984C18.737 4.62109 19.082 4.11979 19.3555 3.58594C19.6419 3.05208 19.8503 2.50521 19.9805 1.94531C20.0326 1.72396 19.9935 1.51562 19.8633 1.32031C19.7461 1.125 19.5768 0.994792 19.3555 0.929688C19.2383 0.903646 19.1211 0.903646 19.0039 0.929688C18.8867 0.955729 18.7826 1.0013 18.6914 1.06641Z" fill="#666666"/>
</svg>
