<svg width="104" height="95" viewBox="0 0 104 95" fill="none" xmlns="http://www.w3.org/2000/svg">
<g clip-path="url(#clip0_622_618)">
<path d="M38.0397 94.32C37.1597 94.32 36.4397 93.6 36.4397 92.72V89.76H19.7997C18.9197 89.76 18.1997 89.04 18.1997 88.16V42.6C18.1997 41.72 18.9197 41 19.7997 41H31.8797V38.04C31.8797 37.16 32.5997 36.44 33.4797 36.44H36.4397V33.48C36.4397 32.6 37.1597 31.88 38.0397 31.88H40.9997V24.36C40.9997 23.48 41.7197 22.76 42.5997 22.76H45.5597V1.6C45.5597 0.72 46.2797 0 47.1597 0H60.7997C61.6797 0 62.3997 0.72 62.3997 1.6V4.56H65.3597C66.2397 4.56 66.9597 5.28 66.9597 6.16V31.88H97.2397C98.1197 31.88 98.8397 32.6 98.8397 33.48V36.44H101.8C102.68 36.44 103.4 37.16 103.4 38.04V79.04C103.4 79.92 102.68 80.64 101.8 80.64H98.8397V88.16C98.8397 89.04 98.1197 89.76 97.2397 89.76H94.2797V92.72C94.2797 93.6 93.5597 94.32 92.6797 94.32H38.0397V94.32Z" fill="#FFD9B7"/>
<path d="M1.6 94.3199C0.72 94.3199 0 93.5999 0 92.7199V38.0399C0 37.1599 0.72 36.4399 1.6 36.4399H19.8C20.68 36.4399 21.4 37.1599 21.4 38.0399V92.6799C21.4 93.5599 20.68 94.2799 19.8 94.2799H1.6V94.3199Z" fill="#6495F4"/>
<path d="M23.5603 88.1596H20.6003C20.1603 88.1596 19.8003 87.7996 19.8003 87.3596V84.3996C19.8003 83.9596 20.1603 83.5996 20.6003 83.5996H23.5603C24.0003 83.5996 24.3603 83.9596 24.3603 84.3996V87.3596C24.3603 87.7996 24.0003 88.1596 23.5603 88.1596Z" fill="black"/>
<path d="M28.1208 88.1596H25.1608C24.7208 88.1596 24.3608 87.7996 24.3608 87.3596V84.3996C24.3608 83.9596 24.7208 83.5996 25.1608 83.5996H28.1208C28.5608 83.5996 28.9208 83.9596 28.9208 84.3996V87.3596C28.9208 87.7996 28.5608 88.1596 28.1208 88.1596Z" fill="black"/>
<path d="M32.6809 88.1596H29.7209C29.2809 88.1596 28.9209 87.7996 28.9209 87.3596V84.3996C28.9209 83.9596 29.2809 83.5996 29.7209 83.5996H32.6809C33.1209 83.5996 33.4809 83.9596 33.4809 84.3996V87.3596C33.4809 87.7996 33.1209 88.1596 32.6809 88.1596Z" fill="black"/>
<path d="M32.6809 83.5995H29.7209C29.2809 83.5995 28.9209 83.2395 28.9209 82.7995V79.8396C28.9209 79.3996 29.2809 79.0396 29.7209 79.0396H32.6809C33.1209 79.0396 33.4809 79.3996 33.4809 79.8396V82.7995C33.4809 83.2395 33.1209 83.5995 32.6809 83.5995Z" fill="black"/>
<path d="M37.24 88.1596H34.28C33.84 88.1596 33.48 87.7996 33.48 87.3596V84.3996C33.48 83.9596 33.84 83.5996 34.28 83.5996H37.24C37.68 83.5996 38.04 83.9596 38.04 84.3996V87.3596C38.04 87.7996 37.68 88.1596 37.24 88.1596Z" fill="black"/>
<path d="M41.7991 92.7197H38.8391C38.3991 92.7197 38.0391 92.3597 38.0391 91.9197V88.9597C38.0391 88.5197 38.3991 88.1597 38.8391 88.1597H41.7991C42.2391 88.1597 42.5991 88.5197 42.5991 88.9597V91.9197C42.5991 92.3597 42.2391 92.7197 41.7991 92.7197Z" fill="black"/>
<path d="M46.3606 92.7197H43.4006C42.9606 92.7197 42.6006 92.3597 42.6006 91.9197V88.9597C42.6006 88.5197 42.9606 88.1597 43.4006 88.1597H46.3606C46.8006 88.1597 47.1606 88.5197 47.1606 88.9597V91.9197C47.1606 92.3597 46.8006 92.7197 46.3606 92.7197Z" fill="black"/>
<path d="M50.9211 92.7197H47.9611C47.5211 92.7197 47.1611 92.3597 47.1611 91.9197V88.9597C47.1611 88.5197 47.5211 88.1597 47.9611 88.1597H50.9211C51.3611 88.1597 51.7211 88.5197 51.7211 88.9597V91.9197C51.7211 92.3597 51.3611 92.7197 50.9211 92.7197Z" fill="black"/>
<path d="M55.4397 92.7197H52.4797C52.0397 92.7197 51.6797 92.3597 51.6797 91.9197V88.9597C51.6797 88.5197 52.0397 88.1597 52.4797 88.1597H55.4397C55.8797 88.1597 56.2397 88.5197 56.2397 88.9597V91.9197C56.2397 92.3597 55.9197 92.7197 55.4397 92.7197Z" fill="black"/>
<path d="M59.9993 92.7197H57.0393C56.5993 92.7197 56.2393 92.3597 56.2393 91.9197V88.9597C56.2393 88.5197 56.5993 88.1597 57.0393 88.1597H59.9993C60.4393 88.1597 60.7993 88.5197 60.7993 88.9597V91.9197C60.7993 92.3597 60.4393 92.7197 59.9993 92.7197Z" fill="black"/>
<path d="M64.5603 92.7197H61.6003C61.1603 92.7197 60.8003 92.3597 60.8003 91.9197V88.9597C60.8003 88.5197 61.1603 88.1597 61.6003 88.1597H64.5603C65.0003 88.1597 65.3603 88.5197 65.3603 88.9597V91.9197C65.3603 92.3597 65.0003 92.7197 64.5603 92.7197Z" fill="black"/>
<path d="M69.1208 92.7197H66.1608C65.7208 92.7197 65.3608 92.3597 65.3608 91.9197V88.9597C65.3608 88.5197 65.7208 88.1597 66.1608 88.1597H69.1208C69.5608 88.1597 69.9208 88.5197 69.9208 88.9597V91.9197C69.9208 92.3597 69.5608 92.7197 69.1208 92.7197Z" fill="black"/>
<path d="M69.1208 88.1596H66.1608C65.7208 88.1596 65.3608 87.7996 65.3608 87.3596V84.3996C65.3608 83.9596 65.7208 83.5996 66.1608 83.5996H69.1208C69.5608 83.5996 69.9208 83.9596 69.9208 84.3996V87.3596C69.9208 87.7996 69.5608 88.1596 69.1208 88.1596Z" fill="black"/>
<path d="M69.1208 83.5995H66.1608C65.7208 83.5995 65.3608 83.2395 65.3608 82.7995V79.8396C65.3608 79.3996 65.7208 79.0396 66.1608 79.0396H69.1208C69.5608 79.0396 69.9208 79.3996 69.9208 79.8396V82.7995C69.9208 83.2395 69.5608 83.5995 69.1208 83.5995Z" fill="black"/>
<path d="M69.1208 74.4799H66.1608C65.7208 74.4799 65.3608 74.1199 65.3608 73.6799V70.7199C65.3608 70.2799 65.7208 69.9199 66.1608 69.9199H69.1208C69.5608 69.9199 69.9208 70.2799 69.9208 70.7199V73.6799C69.9208 74.1199 69.5608 74.4799 69.1208 74.4799Z" fill="black"/>
<path d="M69.1208 69.9199H66.1608C65.7208 69.9199 65.3608 69.5599 65.3608 69.1199V66.1599C65.3608 65.7199 65.7208 65.3599 66.1608 65.3599H69.1208C69.5608 65.3599 69.9208 65.7199 69.9208 66.1599V69.1199C69.9208 69.5599 69.5608 69.9199 69.1208 69.9199Z" fill="black"/>
<path d="M69.1208 65.3598H66.1608C65.7208 65.3598 65.3608 64.9998 65.3608 64.5598V61.5998C65.3608 61.1598 65.7208 60.7998 66.1608 60.7998H69.1208C69.5608 60.7998 69.9208 61.1598 69.9208 61.5998V64.5598C69.9208 64.9998 69.5608 65.3598 69.1208 65.3598Z" fill="black"/>
<path d="M69.1208 60.7997H66.1608C65.7208 60.7997 65.3608 60.4397 65.3608 59.9997V57.0397C65.3608 56.5997 65.7208 56.2397 66.1608 56.2397H69.1208C69.5608 56.2397 69.9208 56.5997 69.9208 57.0397V59.9997C69.9208 60.4397 69.5608 60.7997 69.1208 60.7997Z" fill="black"/>
<path d="M64.5603 65.3598H61.6003C61.1603 65.3598 60.8003 64.9998 60.8003 64.5598V61.5998C60.8003 61.1598 61.1603 60.7998 61.6003 60.7998H64.5603C65.0003 60.7998 65.3603 61.1598 65.3603 61.5998V64.5598C65.3603 64.9998 65.0003 65.3598 64.5603 65.3598Z" fill="black"/>
<path d="M64.5603 60.7997H61.6003C61.1603 60.7997 60.8003 60.4397 60.8003 59.9997V57.0397C60.8003 56.5997 61.1603 56.2397 61.6003 56.2397H64.5603C65.0003 56.2397 65.3603 56.5997 65.3603 57.0397V59.9997C65.3603 60.4397 65.0003 60.7997 64.5603 60.7997Z" fill="black"/>
<path d="M59.9993 69.9199H57.0393C56.5993 69.9199 56.2393 69.5599 56.2393 69.1199V66.1599C56.2393 65.7199 56.5993 65.3599 57.0393 65.3599H59.9993C60.4393 65.3599 60.7993 65.7199 60.7993 66.1599V69.1199C60.7993 69.5599 60.4393 69.9199 59.9993 69.9199Z" fill="black"/>
<path d="M59.9993 65.3598H57.0393C56.5993 65.3598 56.2393 64.9998 56.2393 64.5598V61.5998C56.2393 61.1598 56.5993 60.7998 57.0393 60.7998H59.9993C60.4393 60.7998 60.7993 61.1598 60.7993 61.5998V64.5598C60.7993 64.9998 60.4393 65.3598 59.9993 65.3598Z" fill="black"/>
<path d="M55.4397 74.4799H52.4797C52.0397 74.4799 51.6797 74.1199 51.6797 73.6799V70.7199C51.6797 70.2799 52.0397 69.9199 52.4797 69.9199H55.4397C55.8797 69.9199 56.2397 70.2799 56.2397 70.7199V73.6799C56.2397 74.1199 55.9197 74.4799 55.4397 74.4799Z" fill="black"/>
<path d="M50.9211 74.4799H47.9611C47.5211 74.4799 47.1611 74.1199 47.1611 73.6799V70.7199C47.1611 70.2799 47.5211 69.9199 47.9611 69.9199H50.9211C51.3611 69.9199 51.7211 70.2799 51.7211 70.7199V73.6799C51.7211 74.1199 51.3611 74.4799 50.9211 74.4799Z" fill="black"/>
<path d="M46.3606 74.4799H43.4006C42.9606 74.4799 42.6006 74.1199 42.6006 73.6799V70.7199C42.6006 70.2799 42.9606 69.9199 43.4006 69.9199H46.3606C46.8006 69.9199 47.1606 70.2799 47.1606 70.7199V73.6799C47.1606 74.1199 46.8006 74.4799 46.3606 74.4799Z" fill="black"/>
<path d="M41.7991 74.4799H38.8391C38.3991 74.4799 38.0391 74.1199 38.0391 73.6799V70.7199C38.0391 70.2799 38.3991 69.9199 38.8391 69.9199H41.7991C42.2391 69.9199 42.5991 70.2799 42.5991 70.7199V73.6799C42.5991 74.1199 42.2391 74.4799 41.7991 74.4799Z" fill="black"/>
<path d="M55.4397 69.9199H52.4797C52.0397 69.9199 51.6797 69.5599 51.6797 69.1199V66.1599C51.6797 65.7199 52.0397 65.3599 52.4797 65.3599H55.4397C55.8797 65.3599 56.2397 65.7199 56.2397 66.1599V69.1199C56.2397 69.5599 55.9197 69.9199 55.4397 69.9199Z" fill="black"/>
<path d="M69.1208 56.2397H66.1608C65.7208 56.2397 65.3608 55.8797 65.3608 55.4397V52.4797C65.3608 52.0397 65.7208 51.6797 66.1608 51.6797H69.1208C69.5608 51.6797 69.9208 52.0397 69.9208 52.4797V55.4397C69.9208 55.9197 69.5608 56.2397 69.1208 56.2397Z" fill="black"/>
<path d="M69.1208 51.7197H66.1608C65.7208 51.7197 65.3608 51.3597 65.3608 50.9197V47.9597C65.3608 47.5197 65.7208 47.1597 66.1608 47.1597H69.1208C69.5608 47.1597 69.9208 47.5197 69.9208 47.9597V50.9197C69.9208 51.3597 69.5608 51.7197 69.1208 51.7197Z" fill="black"/>
<path d="M69.1208 47.1596H66.1608C65.7208 47.1596 65.3608 46.7996 65.3608 46.3596V43.3996C65.3608 42.9596 65.7208 42.5996 66.1608 42.5996H69.1208C69.5608 42.5996 69.9208 42.9596 69.9208 43.3996V46.3596C69.9208 46.7996 69.5608 47.1596 69.1208 47.1596Z" fill="black"/>
<path d="M69.1208 42.5996H66.1608C65.7208 42.5996 65.3608 42.2396 65.3608 41.7996V38.8396C65.3608 38.3996 65.7208 38.0396 66.1608 38.0396H69.1208C69.5608 38.0396 69.9208 38.3996 69.9208 38.8396V41.7996C69.9208 42.2396 69.5608 42.5996 69.1208 42.5996Z" fill="black"/>
<path d="M69.1208 38.0395H66.1608C65.7208 38.0395 65.3608 37.6795 65.3608 37.2395V34.2795C65.3608 33.8395 65.7208 33.4795 66.1608 33.4795H69.1208C69.5608 33.4795 69.9208 33.8395 69.9208 34.2795V37.2395C69.9208 37.6795 69.5608 38.0395 69.1208 38.0395Z" fill="black"/>
<path d="M64.5603 38.0395H61.6003C61.1603 38.0395 60.8003 37.6795 60.8003 37.2395V34.2795C60.8003 33.8395 61.1603 33.4795 61.6003 33.4795H64.5603C65.0003 33.4795 65.3603 33.8395 65.3603 34.2795V37.2395C65.3603 37.6795 65.0003 38.0395 64.5603 38.0395Z" fill="black"/>
<path d="M64.5603 33.4799H61.6003C61.1603 33.4799 60.8003 33.1199 60.8003 32.6799V29.7199C60.8003 29.2799 61.1603 28.9199 61.6003 28.9199H64.5603C65.0003 28.9199 65.3603 29.2799 65.3603 29.7199V32.6799C65.3603 33.1199 65.0003 33.4799 64.5603 33.4799Z" fill="black"/>
<path d="M64.5603 28.9199H61.6003C61.1603 28.9199 60.8003 28.5599 60.8003 28.1199V25.1599C60.8003 24.7199 61.1603 24.3599 61.6003 24.3599H64.5603C65.0003 24.3599 65.3603 24.7199 65.3603 25.1599V28.1199C65.3603 28.5599 65.0003 28.9199 64.5603 28.9199Z" fill="black"/>
<path d="M64.5603 24.3598H61.6003C61.1603 24.3598 60.8003 23.9998 60.8003 23.5598V20.5998C60.8003 20.1598 61.1603 19.7998 61.6003 19.7998H64.5603C65.0003 19.7998 65.3603 20.1598 65.3603 20.5998V23.5598C65.3603 23.9998 65.0003 24.3598 64.5603 24.3598Z" fill="black"/>
<path d="M64.5603 19.7997H61.6003C61.1603 19.7997 60.8003 19.4397 60.8003 18.9997V16.0397C60.8003 15.5997 61.1603 15.2397 61.6003 15.2397H64.5603C65.0003 15.2397 65.3603 15.5997 65.3603 16.0397V18.9997C65.3603 19.4797 65.0003 19.7997 64.5603 19.7997Z" fill="black"/>
<path d="M64.5603 15.2797H61.6003C61.1603 15.2797 60.8003 14.9197 60.8003 14.4797V11.5197C60.8003 11.0797 61.1603 10.7197 61.6003 10.7197H64.5603C65.0003 10.7197 65.3603 11.0797 65.3603 11.5197V14.4797C65.3603 14.9197 65.0003 15.2797 64.5603 15.2797Z" fill="black"/>
<path d="M64.5603 10.7197H61.6003C61.1603 10.7197 60.8003 10.3597 60.8003 9.91967V6.95967C60.8003 6.51967 61.1603 6.15967 61.6003 6.15967H64.5603C65.0003 6.15967 65.3603 6.51967 65.3603 6.95967V9.91967C65.3603 10.3597 65.0003 10.7197 64.5603 10.7197Z" fill="black"/>
<path d="M59.9993 6.15961H57.0393C56.5993 6.15961 56.2393 5.79961 56.2393 5.35961V2.39961C56.2393 1.95961 56.5993 1.59961 57.0393 1.59961H59.9993C60.4393 1.59961 60.7993 1.95961 60.7993 2.39961V5.35961C60.7993 5.79961 60.4393 6.15961 59.9993 6.15961Z" fill="black"/>
<path d="M55.4397 6.15961H52.4797C52.0397 6.15961 51.6797 5.79961 51.6797 5.35961V2.39961C51.6797 1.95961 52.0397 1.59961 52.4797 1.59961H55.4397C55.8797 1.59961 56.2397 1.95961 56.2397 2.39961V5.35961C56.2397 5.79961 55.9197 6.15961 55.4397 6.15961Z" fill="black"/>
<path d="M50.9211 6.15961H47.9611C47.5211 6.15961 47.1611 5.79961 47.1611 5.35961V2.39961C47.1611 1.95961 47.5211 1.59961 47.9611 1.59961H50.9211C51.3611 1.59961 51.7211 1.95961 51.7211 2.39961V5.35961C51.7211 5.79961 51.3611 6.15961 50.9211 6.15961Z" fill="black"/>
<path d="M50.9211 10.7197H47.9611C47.5211 10.7197 47.1611 10.3597 47.1611 9.91967V6.95967C47.1611 6.51967 47.5211 6.15967 47.9611 6.15967H50.9211C51.3611 6.15967 51.7211 6.51967 51.7211 6.95967V9.91967C51.7211 10.3597 51.3611 10.7197 50.9211 10.7197Z" fill="black"/>
<path d="M50.9211 15.2797H47.9611C47.5211 15.2797 47.1611 14.9197 47.1611 14.4797V11.5197C47.1611 11.0797 47.5211 10.7197 47.9611 10.7197H50.9211C51.3611 10.7197 51.7211 11.0797 51.7211 11.5197V14.4797C51.7211 14.9197 51.3611 15.2797 50.9211 15.2797Z" fill="black"/>
<path d="M50.9211 19.7997H47.9611C47.5211 19.7997 47.1611 19.4397 47.1611 18.9997V16.0397C47.1611 15.5997 47.5211 15.2397 47.9611 15.2397H50.9211C51.3611 15.2397 51.7211 15.5997 51.7211 16.0397V18.9997C51.7211 19.4797 51.3611 19.7997 50.9211 19.7997Z" fill="black"/>
<path d="M50.9211 24.3598H47.9611C47.5211 24.3598 47.1611 23.9998 47.1611 23.5598V20.5998C47.1611 20.1598 47.5211 19.7998 47.9611 19.7998H50.9211C51.3611 19.7998 51.7211 20.1598 51.7211 20.5998V23.5598C51.7211 23.9998 51.3611 24.3598 50.9211 24.3598Z" fill="black"/>
<path d="M46.3606 28.9199H43.4006C42.9606 28.9199 42.6006 28.5599 42.6006 28.1199V25.1599C42.6006 24.7199 42.9606 24.3599 43.4006 24.3599H46.3606C46.8006 24.3599 47.1606 24.7199 47.1606 25.1599V28.1199C47.1606 28.5599 46.8006 28.9199 46.3606 28.9199Z" fill="black"/>
<path d="M46.3606 33.4799H43.4006C42.9606 33.4799 42.6006 33.1199 42.6006 32.6799V29.7199C42.6006 29.2799 42.9606 28.9199 43.4006 28.9199H46.3606C46.8006 28.9199 47.1606 29.2799 47.1606 29.7199V32.6799C47.1606 33.1199 46.8006 33.4799 46.3606 33.4799Z" fill="black"/>
<path d="M41.7991 38.0395H38.8391C38.3991 38.0395 38.0391 37.6795 38.0391 37.2395V34.2795C38.0391 33.8395 38.3991 33.4795 38.8391 33.4795H41.7991C42.2391 33.4795 42.5991 33.8395 42.5991 34.2795V37.2395C42.5991 37.6795 42.2391 38.0395 41.7991 38.0395Z" fill="black"/>
<path d="M37.24 42.5996H34.28C33.84 42.5996 33.48 42.2396 33.48 41.7996V38.8396C33.48 38.3996 33.84 38.0396 34.28 38.0396H37.24C37.68 38.0396 38.04 38.3996 38.04 38.8396V41.7996C38.04 42.2396 37.68 42.5996 37.24 42.5996Z" fill="black"/>
<path d="M32.6809 47.1596H29.7209C29.2809 47.1596 28.9209 46.7996 28.9209 46.3596V43.3996C28.9209 42.9596 29.2809 42.5996 29.7209 42.5996H32.6809C33.1209 42.5996 33.4809 42.9596 33.4809 43.3996V46.3596C33.4809 46.7996 33.1209 47.1596 32.6809 47.1596Z" fill="black"/>
<path d="M28.1208 47.1596H25.1608C24.7208 47.1596 24.3608 46.7996 24.3608 46.3596V43.3996C24.3608 42.9596 24.7208 42.5996 25.1608 42.5996H28.1208C28.5608 42.5996 28.9208 42.9596 28.9208 43.3996V46.3596C28.9208 46.7996 28.5608 47.1596 28.1208 47.1596Z" fill="black"/>
<path d="M23.5603 47.1596H20.6003C20.1603 47.1596 19.8003 46.7996 19.8003 46.3596V43.3996C19.8003 42.9596 20.1603 42.5996 20.6003 42.5996H23.5603C24.0003 42.5996 24.3603 42.9596 24.3603 43.3996V46.3596C24.3603 46.7996 24.0003 47.1596 23.5603 47.1596Z" fill="black"/>
<path d="M18.9993 42.5996H16.0393C15.5993 42.5996 15.2393 42.2396 15.2393 41.7996V38.8396C15.2393 38.3996 15.5993 38.0396 16.0393 38.0396H18.9993C19.4393 38.0396 19.7993 38.3996 19.7993 38.8396V41.7996C19.7993 42.2396 19.4793 42.5996 18.9993 42.5996Z" fill="black"/>
<path d="M14.4802 42.5996H11.5202C11.0802 42.5996 10.7202 42.2396 10.7202 41.7996V38.8396C10.7202 38.3996 11.0802 38.0396 11.5202 38.0396H14.4802C14.9202 38.0396 15.2802 38.3996 15.2802 38.8396V41.7996C15.2802 42.2396 14.9202 42.5996 14.4802 42.5996Z" fill="black"/>
<path d="M9.92113 42.5996H6.96113C6.52113 42.5996 6.16113 42.2396 6.16113 41.7996V38.8396C6.16113 38.3996 6.52113 38.0396 6.96113 38.0396H9.92113C10.3611 38.0396 10.7211 38.3996 10.7211 38.8396V41.7996C10.7211 42.2396 10.3611 42.5996 9.92113 42.5996Z" fill="black"/>
<path d="M14.4802 92.7197H11.5202C11.0802 92.7197 10.7202 92.3597 10.7202 91.9197V88.9597C10.7202 88.5197 11.0802 88.1597 11.5202 88.1597H14.4802C14.9202 88.1597 15.2802 88.5197 15.2802 88.9597V91.9197C15.2802 92.3597 14.9202 92.7197 14.4802 92.7197Z" fill="black"/>
<path d="M9.92113 92.7197H6.96113C6.52113 92.7197 6.16113 92.3597 6.16113 91.9197V88.9597C6.16113 88.5197 6.52113 88.1597 6.96113 88.1597H9.92113C10.3611 88.1597 10.7211 88.5197 10.7211 88.9597V91.9197C10.7211 92.3597 10.3611 92.7197 9.92113 92.7197Z" fill="black"/>
<path d="M5.36059 42.5996H2.40059C1.96059 42.5996 1.60059 42.2396 1.60059 41.7996V38.8396C1.60059 38.3996 1.96059 38.0396 2.40059 38.0396H5.36059C5.80059 38.0396 6.16059 38.3996 6.16059 38.8396V41.7996C6.16059 42.2396 5.80059 42.5996 5.36059 42.5996Z" fill="black"/>
<path d="M18.9993 47.1596H16.0393C15.5993 47.1596 15.2393 46.7996 15.2393 46.3596V43.3996C15.2393 42.9596 15.5993 42.5996 16.0393 42.5996H18.9993C19.4393 42.5996 19.7993 42.9596 19.7993 43.3996V46.3596C19.7993 46.7996 19.4793 47.1596 18.9993 47.1596Z" fill="black"/>
<path d="M18.9993 51.7197H16.0393C15.5993 51.7197 15.2393 51.3597 15.2393 50.9197V47.9597C15.2393 47.5197 15.5993 47.1597 16.0393 47.1597H18.9993C19.4393 47.1597 19.7993 47.5197 19.7993 47.9597V50.9197C19.7993 51.3597 19.4793 51.7197 18.9993 51.7197Z" fill="black"/>
<path d="M18.9993 56.2397H16.0393C15.5993 56.2397 15.2393 55.8797 15.2393 55.4397V52.4797C15.2393 52.0397 15.5993 51.6797 16.0393 51.6797H18.9993C19.4393 51.6797 19.7993 52.0397 19.7993 52.4797V55.4397C19.7993 55.9197 19.4793 56.2397 18.9993 56.2397Z" fill="black"/>
<path d="M18.9993 60.7997H16.0393C15.5993 60.7997 15.2393 60.4397 15.2393 59.9997V57.0397C15.2393 56.5997 15.5993 56.2397 16.0393 56.2397H18.9993C19.4393 56.2397 19.7993 56.5997 19.7993 57.0397V59.9997C19.7993 60.4397 19.4793 60.7997 18.9993 60.7997Z" fill="black"/>
<path d="M18.9993 65.3598H16.0393C15.5993 65.3598 15.2393 64.9998 15.2393 64.5598V61.5998C15.2393 61.1598 15.5993 60.7998 16.0393 60.7998H18.9993C19.4393 60.7998 19.7993 61.1598 19.7993 61.5998V64.5598C19.7993 64.9998 19.4793 65.3598 18.9993 65.3598Z" fill="black"/>
<path d="M18.9993 69.9199H16.0393C15.5993 69.9199 15.2393 69.5599 15.2393 69.1199V66.1599C15.2393 65.7199 15.5993 65.3599 16.0393 65.3599H18.9993C19.4393 65.3599 19.7993 65.7199 19.7993 66.1599V69.1199C19.7993 69.5599 19.4793 69.9199 18.9993 69.9199Z" fill="black"/>
<path d="M18.9993 74.4799H16.0393C15.5993 74.4799 15.2393 74.1199 15.2393 73.6799V70.7199C15.2393 70.2799 15.5993 69.9199 16.0393 69.9199H18.9993C19.4393 69.9199 19.7993 70.2799 19.7993 70.7199V73.6799C19.7993 74.1199 19.4793 74.4799 18.9993 74.4799Z" fill="black"/>
<path d="M18.9993 79.0395H16.0393C15.5993 79.0395 15.2393 78.6795 15.2393 78.2395V75.2795C15.2393 74.8395 15.5993 74.4795 16.0393 74.4795H18.9993C19.4393 74.4795 19.7993 74.8395 19.7993 75.2795V78.2395C19.7993 78.6795 19.4793 79.0395 18.9993 79.0395Z" fill="black"/>
<path d="M18.9993 83.5995H16.0393C15.5993 83.5995 15.2393 83.2395 15.2393 82.7995V79.8396C15.2393 79.3996 15.5993 79.0396 16.0393 79.0396H18.9993C19.4393 79.0396 19.7993 79.3996 19.7993 79.8396V82.7995C19.7993 83.2395 19.4793 83.5995 18.9993 83.5995Z" fill="black"/>
<path d="M18.9993 88.1596H16.0393C15.5993 88.1596 15.2393 87.7996 15.2393 87.3596V84.3996C15.2393 83.9596 15.5993 83.5996 16.0393 83.5996H18.9993C19.4393 83.5996 19.7993 83.9596 19.7993 84.3996V87.3596C19.7993 87.7996 19.4793 88.1596 18.9993 88.1596Z" fill="black"/>
<path d="M18.9993 92.7197H16.0393C15.5993 92.7197 15.2393 92.3597 15.2393 91.9197V88.9597C15.2393 88.5197 15.5993 88.1597 16.0393 88.1597H18.9993C19.4393 88.1597 19.7993 88.5197 19.7993 88.9597V91.9197C19.7993 92.3597 19.4793 92.7197 18.9993 92.7197Z" fill="black"/>
<path d="M5.36059 47.1596H2.40059C1.96059 47.1596 1.60059 46.7996 1.60059 46.3596V43.3996C1.60059 42.9596 1.96059 42.5996 2.40059 42.5996H5.36059C5.80059 42.5996 6.16059 42.9596 6.16059 43.3996V46.3596C6.16059 46.7996 5.80059 47.1596 5.36059 47.1596Z" fill="black"/>
<path d="M5.36059 51.7197H2.40059C1.96059 51.7197 1.60059 51.3597 1.60059 50.9197V47.9597C1.60059 47.5197 1.96059 47.1597 2.40059 47.1597H5.36059C5.80059 47.1597 6.16059 47.5197 6.16059 47.9597V50.9197C6.16059 51.3597 5.80059 51.7197 5.36059 51.7197Z" fill="black"/>
<path d="M5.36059 56.2397H2.40059C1.96059 56.2397 1.60059 55.8797 1.60059 55.4397V52.4797C1.60059 52.0397 1.96059 51.6797 2.40059 51.6797H5.36059C5.80059 51.6797 6.16059 52.0397 6.16059 52.4797V55.4397C6.16059 55.9197 5.80059 56.2397 5.36059 56.2397Z" fill="black"/>
<path d="M5.36059 60.7997H2.40059C1.96059 60.7997 1.60059 60.4397 1.60059 59.9997V57.0397C1.60059 56.5997 1.96059 56.2397 2.40059 56.2397H5.36059C5.80059 56.2397 6.16059 56.5997 6.16059 57.0397V59.9997C6.16059 60.4397 5.80059 60.7997 5.36059 60.7997Z" fill="black"/>
<path d="M5.36059 65.3598H2.40059C1.96059 65.3598 1.60059 64.9998 1.60059 64.5598V61.5998C1.60059 61.1598 1.96059 60.7998 2.40059 60.7998H5.36059C5.80059 60.7998 6.16059 61.1598 6.16059 61.5998V64.5598C6.16059 64.9998 5.80059 65.3598 5.36059 65.3598Z" fill="black"/>
<path d="M5.36059 69.9199H2.40059C1.96059 69.9199 1.60059 69.5599 1.60059 69.1199V66.1599C1.60059 65.7199 1.96059 65.3599 2.40059 65.3599H5.36059C5.80059 65.3599 6.16059 65.7199 6.16059 66.1599V69.1199C6.16059 69.5599 5.80059 69.9199 5.36059 69.9199Z" fill="black"/>
<path d="M5.36059 74.4799H2.40059C1.96059 74.4799 1.60059 74.1199 1.60059 73.6799V70.7199C1.60059 70.2799 1.96059 69.9199 2.40059 69.9199H5.36059C5.80059 69.9199 6.16059 70.2799 6.16059 70.7199V73.6799C6.16059 74.1199 5.80059 74.4799 5.36059 74.4799Z" fill="black"/>
<path d="M5.36059 79.0395H2.40059C1.96059 79.0395 1.60059 78.6795 1.60059 78.2395V75.2795C1.60059 74.8395 1.96059 74.4795 2.40059 74.4795H5.36059C5.80059 74.4795 6.16059 74.8395 6.16059 75.2795V78.2395C6.16059 78.6795 5.80059 79.0395 5.36059 79.0395Z" fill="black"/>
<path d="M5.36059 83.5995H2.40059C1.96059 83.5995 1.60059 83.2395 1.60059 82.7995V79.8396C1.60059 79.3996 1.96059 79.0396 2.40059 79.0396H5.36059C5.80059 79.0396 6.16059 79.3996 6.16059 79.8396V82.7995C6.16059 83.2395 5.80059 83.5995 5.36059 83.5995Z" fill="black"/>
<path d="M5.36059 88.1596H2.40059C1.96059 88.1596 1.60059 87.7996 1.60059 87.3596V84.3996C1.60059 83.9596 1.96059 83.5996 2.40059 83.5996H5.36059C5.80059 83.5996 6.16059 83.9596 6.16059 84.3996V87.3596C6.16059 87.7996 5.80059 88.1596 5.36059 88.1596Z" fill="black"/>
<path d="M5.36059 92.7197H2.40059C1.96059 92.7197 1.60059 92.3597 1.60059 91.9197V88.9597C1.60059 88.5197 1.96059 88.1597 2.40059 88.1597H5.36059C5.80059 88.1597 6.16059 88.5197 6.16059 88.9597V91.9197C6.16059 92.3597 5.80059 92.7197 5.36059 92.7197Z" fill="black"/>
<path d="M73.6809 38.0395H70.7209C70.2809 38.0395 69.9209 37.6795 69.9209 37.2395V34.2795C69.9209 33.8395 70.2809 33.4795 70.7209 33.4795H73.6809C74.1209 33.4795 74.4809 33.8395 74.4809 34.2795V37.2395C74.4809 37.6795 74.1209 38.0395 73.6809 38.0395Z" fill="black"/>
<path d="M78.24 38.0395H75.28C74.84 38.0395 74.48 37.6795 74.48 37.2395V34.2795C74.48 33.8395 74.84 33.4795 75.28 33.4795H78.24C78.68 33.4795 79.04 33.8395 79.04 34.2795V37.2395C79.04 37.6795 78.68 38.0395 78.24 38.0395Z" fill="black"/>
<path d="M82.7991 38.0395H79.8391C79.3991 38.0395 79.0391 37.6795 79.0391 37.2395V34.2795C79.0391 33.8395 79.3991 33.4795 79.8391 33.4795H82.7991C83.2391 33.4795 83.5991 33.8395 83.5991 34.2795V37.2395C83.5991 37.6795 83.2391 38.0395 82.7991 38.0395Z" fill="black"/>
<path d="M87.3606 38.0395H84.4006C83.9606 38.0395 83.6006 37.6795 83.6006 37.2395V34.2795C83.6006 33.8395 83.9606 33.4795 84.4006 33.4795H87.3606C87.8006 33.4795 88.1606 33.8395 88.1606 34.2795V37.2395C88.1606 37.6795 87.8006 38.0395 87.3606 38.0395Z" fill="black"/>
<path d="M91.9211 38.0395H88.9611C88.5211 38.0395 88.1611 37.6795 88.1611 37.2395V34.2795C88.1611 33.8395 88.5211 33.4795 88.9611 33.4795H91.9211C92.3611 33.4795 92.7211 33.8395 92.7211 34.2795V37.2395C92.7211 37.6795 92.3611 38.0395 91.9211 38.0395Z" fill="black"/>
<path d="M96.4397 38.0395H93.4797C93.0397 38.0395 92.6797 37.6795 92.6797 37.2395V34.2795C92.6797 33.8395 93.0397 33.4795 93.4797 33.4795H96.4397C96.8797 33.4795 97.2397 33.8395 97.2397 34.2795V37.2395C97.2397 37.6795 96.8797 38.0395 96.4397 38.0395Z" fill="black"/>
<path d="M73.6809 51.7197H70.7209C70.2809 51.7197 69.9209 51.3597 69.9209 50.9197V47.9597C69.9209 47.5197 70.2809 47.1597 70.7209 47.1597H73.6809C74.1209 47.1597 74.4809 47.5197 74.4809 47.9597V50.9197C74.4809 51.3597 74.1209 51.7197 73.6809 51.7197Z" fill="black"/>
<path d="M78.24 51.7197H75.28C74.84 51.7197 74.48 51.3597 74.48 50.9197V47.9597C74.48 47.5197 74.84 47.1597 75.28 47.1597H78.24C78.68 47.1597 79.04 47.5197 79.04 47.9597V50.9197C79.04 51.3597 78.68 51.7197 78.24 51.7197Z" fill="black"/>
<path d="M82.7991 51.7197H79.8391C79.3991 51.7197 79.0391 51.3597 79.0391 50.9197V47.9597C79.0391 47.5197 79.3991 47.1597 79.8391 47.1597H82.7991C83.2391 47.1597 83.5991 47.5197 83.5991 47.9597V50.9197C83.5991 51.3597 83.2391 51.7197 82.7991 51.7197Z" fill="black"/>
<path d="M87.3606 51.7197H84.4006C83.9606 51.7197 83.6006 51.3597 83.6006 50.9197V47.9597C83.6006 47.5197 83.9606 47.1597 84.4006 47.1597H87.3606C87.8006 47.1597 88.1606 47.5197 88.1606 47.9597V50.9197C88.1606 51.3597 87.8006 51.7197 87.3606 51.7197Z" fill="black"/>
<path d="M91.9211 51.7197H88.9611C88.5211 51.7197 88.1611 51.3597 88.1611 50.9197V47.9597C88.1611 47.5197 88.5211 47.1597 88.9611 47.1597H91.9211C92.3611 47.1597 92.7211 47.5197 92.7211 47.9597V50.9197C92.7211 51.3597 92.3611 51.7197 91.9211 51.7197Z" fill="black"/>
<path d="M96.4397 51.7197H93.4797C93.0397 51.7197 92.6797 51.3597 92.6797 50.9197V47.9597C92.6797 47.5197 93.0397 47.1597 93.4797 47.1597H96.4397C96.8797 47.1597 97.2397 47.5197 97.2397 47.9597V50.9197C97.2397 51.3597 96.8797 51.7197 96.4397 51.7197Z" fill="black"/>
<path d="M73.6809 65.3598H70.7209C70.2809 65.3598 69.9209 64.9998 69.9209 64.5598V61.5998C69.9209 61.1598 70.2809 60.7998 70.7209 60.7998H73.6809C74.1209 60.7998 74.4809 61.1598 74.4809 61.5998V64.5598C74.4809 64.9998 74.1209 65.3598 73.6809 65.3598Z" fill="black"/>
<path d="M78.24 65.3598H75.28C74.84 65.3598 74.48 64.9998 74.48 64.5598V61.5998C74.48 61.1598 74.84 60.7998 75.28 60.7998H78.24C78.68 60.7998 79.04 61.1598 79.04 61.5998V64.5598C79.04 64.9998 78.68 65.3598 78.24 65.3598Z" fill="black"/>
<path d="M82.7991 65.3598H79.8391C79.3991 65.3598 79.0391 64.9998 79.0391 64.5598V61.5998C79.0391 61.1598 79.3991 60.7998 79.8391 60.7998H82.7991C83.2391 60.7998 83.5991 61.1598 83.5991 61.5998V64.5598C83.5991 64.9998 83.2391 65.3598 82.7991 65.3598Z" fill="black"/>
<path d="M87.3606 65.3598H84.4006C83.9606 65.3598 83.6006 64.9998 83.6006 64.5598V61.5998C83.6006 61.1598 83.9606 60.7998 84.4006 60.7998H87.3606C87.8006 60.7998 88.1606 61.1598 88.1606 61.5998V64.5598C88.1606 64.9998 87.8006 65.3598 87.3606 65.3598Z" fill="black"/>
<path d="M91.9211 65.3598H88.9611C88.5211 65.3598 88.1611 64.9998 88.1611 64.5598V61.5998C88.1611 61.1598 88.5211 60.7998 88.9611 60.7998H91.9211C92.3611 60.7998 92.7211 61.1598 92.7211 61.5998V64.5598C92.7211 64.9998 92.3611 65.3598 91.9211 65.3598Z" fill="black"/>
<path d="M96.4397 65.3598H93.4797C93.0397 65.3598 92.6797 64.9998 92.6797 64.5598V61.5998C92.6797 61.1598 93.0397 60.7998 93.4797 60.7998H96.4397C96.8797 60.7998 97.2397 61.1598 97.2397 61.5998V64.5598C97.2397 64.9998 96.8797 65.3598 96.4397 65.3598Z" fill="black"/>
<path d="M73.6809 79.0395H70.7209C70.2809 79.0395 69.9209 78.6795 69.9209 78.2395V75.2795C69.9209 74.8395 70.2809 74.4795 70.7209 74.4795H73.6809C74.1209 74.4795 74.4809 74.8395 74.4809 75.2795V78.2395C74.4809 78.6795 74.1209 79.0395 73.6809 79.0395Z" fill="black"/>
<path d="M78.24 79.0395H75.28C74.84 79.0395 74.48 78.6795 74.48 78.2395V75.2795C74.48 74.8395 74.84 74.4795 75.28 74.4795H78.24C78.68 74.4795 79.04 74.8395 79.04 75.2795V78.2395C79.04 78.6795 78.68 79.0395 78.24 79.0395Z" fill="black"/>
<path d="M82.7991 79.0395H79.8391C79.3991 79.0395 79.0391 78.6795 79.0391 78.2395V75.2795C79.0391 74.8395 79.3991 74.4795 79.8391 74.4795H82.7991C83.2391 74.4795 83.5991 74.8395 83.5991 75.2795V78.2395C83.5991 78.6795 83.2391 79.0395 82.7991 79.0395Z" fill="black"/>
<path d="M87.3606 79.0395H84.4006C83.9606 79.0395 83.6006 78.6795 83.6006 78.2395V75.2795C83.6006 74.8395 83.9606 74.4795 84.4006 74.4795H87.3606C87.8006 74.4795 88.1606 74.8395 88.1606 75.2795V78.2395C88.1606 78.6795 87.8006 79.0395 87.3606 79.0395Z" fill="black"/>
<path d="M91.9211 79.0395H88.9611C88.5211 79.0395 88.1611 78.6795 88.1611 78.2395V75.2795C88.1611 74.8395 88.5211 74.4795 88.9611 74.4795H91.9211C92.3611 74.4795 92.7211 74.8395 92.7211 75.2795V78.2395C92.7211 78.6795 92.3611 79.0395 91.9211 79.0395Z" fill="black"/>
<path d="M96.4397 79.0395H93.4797C93.0397 79.0395 92.6797 78.6795 92.6797 78.2395V75.2795C92.6797 74.8395 93.0397 74.4795 93.4797 74.4795H96.4397C96.8797 74.4795 97.2397 74.8395 97.2397 75.2795V78.2395C97.2397 78.6795 96.8797 79.0395 96.4397 79.0395Z" fill="black"/>
<path d="M100.999 79.0395H98.0393C97.5993 79.0395 97.2393 78.6795 97.2393 78.2395V75.2795C97.2393 74.8395 97.5993 74.4795 98.0393 74.4795H100.999C101.439 74.4795 101.799 74.8395 101.799 75.2795V78.2395C101.799 78.6795 101.439 79.0395 100.999 79.0395Z" fill="black"/>
<path d="M100.999 74.4799H98.0393C97.5993 74.4799 97.2393 74.1199 97.2393 73.6799V70.7199C97.2393 70.2799 97.5993 69.9199 98.0393 69.9199H100.999C101.439 69.9199 101.799 70.2799 101.799 70.7199V73.6799C101.799 74.1199 101.439 74.4799 100.999 74.4799Z" fill="black"/>
<path d="M100.999 69.9199H98.0393C97.5993 69.9199 97.2393 69.5599 97.2393 69.1199V66.1599C97.2393 65.7199 97.5993 65.3599 98.0393 65.3599H100.999C101.439 65.3599 101.799 65.7199 101.799 66.1599V69.1199C101.799 69.5599 101.439 69.9199 100.999 69.9199Z" fill="black"/>
<path d="M100.999 65.3598H98.0393C97.5993 65.3598 97.2393 64.9998 97.2393 64.5598V61.5998C97.2393 61.1598 97.5993 60.7998 98.0393 60.7998H100.999C101.439 60.7998 101.799 61.1598 101.799 61.5998V64.5598C101.799 64.9998 101.439 65.3598 100.999 65.3598Z" fill="black"/>
<path d="M100.999 60.7997H98.0393C97.5993 60.7997 97.2393 60.4397 97.2393 59.9997V57.0397C97.2393 56.5997 97.5993 56.2397 98.0393 56.2397H100.999C101.439 56.2397 101.799 56.5997 101.799 57.0397V59.9997C101.799 60.4397 101.439 60.7997 100.999 60.7997Z" fill="black"/>
<path d="M100.999 56.2397H98.0393C97.5993 56.2397 97.2393 55.8797 97.2393 55.4397V52.4797C97.2393 52.0397 97.5993 51.6797 98.0393 51.6797H100.999C101.439 51.6797 101.799 52.0397 101.799 52.4797V55.4397C101.799 55.9197 101.439 56.2397 100.999 56.2397Z" fill="black"/>
<path d="M100.999 51.7197H98.0393C97.5993 51.7197 97.2393 51.3597 97.2393 50.9197V47.9597C97.2393 47.5197 97.5993 47.1597 98.0393 47.1597H100.999C101.439 47.1597 101.799 47.5197 101.799 47.9597V50.9197C101.799 51.3597 101.439 51.7197 100.999 51.7197Z" fill="black"/>
<path d="M100.999 47.1596H98.0393C97.5993 47.1596 97.2393 46.7996 97.2393 46.3596V43.3996C97.2393 42.9596 97.5993 42.5996 98.0393 42.5996H100.999C101.439 42.5996 101.799 42.9596 101.799 43.3996V46.3596C101.799 46.7996 101.439 47.1596 100.999 47.1596Z" fill="black"/>
<path d="M100.999 42.5996H98.0393C97.5993 42.5996 97.2393 42.2396 97.2393 41.7996V38.8396C97.2393 38.3996 97.5993 38.0396 98.0393 38.0396H100.999C101.439 38.0396 101.799 38.3996 101.799 38.8396V41.7996C101.799 42.2396 101.439 42.5996 100.999 42.5996Z" fill="black"/>
<path d="M73.6809 92.7197H70.7209C70.2809 92.7197 69.9209 92.3597 69.9209 91.9197V88.9597C69.9209 88.5197 70.2809 88.1597 70.7209 88.1597H73.6809C74.1209 88.1597 74.4809 88.5197 74.4809 88.9597V91.9197C74.4809 92.3597 74.1209 92.7197 73.6809 92.7197Z" fill="black"/>
<path d="M78.24 92.7197H75.28C74.84 92.7197 74.48 92.3597 74.48 91.9197V88.9597C74.48 88.5197 74.84 88.1597 75.28 88.1597H78.24C78.68 88.1597 79.04 88.5197 79.04 88.9597V91.9197C79.04 92.3597 78.68 92.7197 78.24 92.7197Z" fill="black"/>
<path d="M82.7991 92.7197H79.8391C79.3991 92.7197 79.0391 92.3597 79.0391 91.9197V88.9597C79.0391 88.5197 79.3991 88.1597 79.8391 88.1597H82.7991C83.2391 88.1597 83.5991 88.5197 83.5991 88.9597V91.9197C83.5991 92.3597 83.2391 92.7197 82.7991 92.7197Z" fill="black"/>
<path d="M87.3606 92.7197H84.4006C83.9606 92.7197 83.6006 92.3597 83.6006 91.9197V88.9597C83.6006 88.5197 83.9606 88.1597 84.4006 88.1597H87.3606C87.8006 88.1597 88.1606 88.5197 88.1606 88.9597V91.9197C88.1606 92.3597 87.8006 92.7197 87.3606 92.7197Z" fill="black"/>
<path d="M91.9211 92.7197H88.9611C88.5211 92.7197 88.1611 92.3597 88.1611 91.9197V88.9597C88.1611 88.5197 88.5211 88.1597 88.9611 88.1597H91.9211C92.3611 88.1597 92.7211 88.5197 92.7211 88.9597V91.9197C92.7211 92.3597 92.3611 92.7197 91.9211 92.7197Z" fill="black"/>
<path d="M96.4397 88.1596H93.4797C93.0397 88.1596 92.6797 87.7996 92.6797 87.3596V84.3996C92.6797 83.9596 93.0397 83.5996 93.4797 83.5996H96.4397C96.8797 83.5996 97.2397 83.9596 97.2397 84.3996V87.3596C97.2397 87.7996 96.8797 88.1596 96.4397 88.1596Z" fill="black"/>
<path d="M96.4397 83.5995H93.4797C93.0397 83.5995 92.6797 83.2395 92.6797 82.7995V79.8396C92.6797 79.3996 93.0397 79.0396 93.4797 79.0396H96.4397C96.8797 79.0396 97.2397 79.3996 97.2397 79.8396V82.7995C97.2397 83.2395 96.8797 83.5995 96.4397 83.5995Z" fill="black"/>
</g>
<defs>
<clipPath id="clip0_622_618">
<rect width="103.4" height="94.32" fill="white"/>
</clipPath>
</defs>
</svg>
