<svg width="50" height="50" viewBox="0 0 40 40" fill="none" xmlns="http://www.w3.org/2000/svg">
    <g clip-path="url(#a)">
        <mask id="b" style="mask-type:luminance" maskUnits="userSpaceOnUse" x="0" y="0" width="40" height="40">
            <path d="M40 0H0v40h40V0Z" fill="#fff" />
        </mask>
        <g mask="url(#b)">
            <path
                d="M0 11.034C0 4.94 4.94 0 11.034 0h17.931C35.06 0 40 4.94 40 11.034v17.931C40 35.06 35.06 40 28.965 40h-17.93C4.94 40 0 35.06 0 28.965v-17.93Z"
                fill="#3C19FD" />
            <path fill-rule="evenodd" clip-rule="evenodd"
                d="M31.148 15.424v16.523h-4.924v-8.016c-1.767 1.405-3.847 2.137-6.225 2.137-2.378 0-4.459-.732-6.225-2.137v8.016H8.85V15.424c.72.436 1.562.687 2.462.687.9 0 1.743-.25 2.462-.687v.167c1.544 3.901 3.573 5.604 6.225 5.604 2.652 0 4.68-1.703 6.225-5.604v-.167c.719.436 1.561.687 2.462.687.9 0 1.742-.25 2.462-.687Zm-19.836-1.187c1.616 0 2.927-1.322 2.927-2.952s-1.31-2.952-2.927-2.952c-1.616 0-2.927 1.322-2.927 2.952s1.31 2.952 2.927 2.952Zm17.374 0c1.616 0 2.926-1.322 2.926-2.952s-1.31-2.952-2.926-2.952c-1.617 0-2.927 1.322-2.927 2.952s1.31 2.952 2.927 2.952Z"
                fill="#fff" />
        </g>
    </g>
    <defs>
        <clipPath id="a">
            <rect width="40" height="40" rx="8" fill="#fff" />
        </clipPath>
    </defs>
</svg>